%TF.GenerationSoftware,KiCad,Pcbnew,5.1.7-a382d34a8~88~ubuntu18.04.1*%
%TF.CreationDate,2022-05-18T14:25:08-05:00*%
%TF.ProjectId,Global_Val_Sen_CPU,476c6f62-616c-45f5-9661-6c5f53656e5f,rev?*%
%TF.SameCoordinates,Original*%
%TF.FileFunction,Soldermask,Top*%
%TF.FilePolarity,Negative*%
%FSLAX46Y46*%
G04 Gerber Fmt 4.6, Leading zero omitted, Abs format (unit mm)*
G04 Created by KiCad (PCBNEW 5.1.7-a382d34a8~88~ubuntu18.04.1) date 2022-05-18 14:25:08*
%MOMM*%
%LPD*%
G01*
G04 APERTURE LIST*
%ADD10O,1.350000X1.350000*%
%ADD11R,1.350000X1.350000*%
%ADD12C,2.200000*%
%ADD13R,2.000000X1.500000*%
%ADD14R,2.000000X3.800000*%
%ADD15R,1.500000X1.500000*%
%ADD16C,0.762000*%
%ADD17R,1.330000X1.330000*%
%ADD18R,0.900000X2.000000*%
%ADD19R,2.000000X0.900000*%
G04 APERTURE END LIST*
D10*
%TO.C,JD_cpu1*%
X86500000Y-68500000D03*
X86500000Y-66500000D03*
X86500000Y-64500000D03*
X86500000Y-62500000D03*
X86500000Y-60500000D03*
X86500000Y-58500000D03*
X86500000Y-56500000D03*
X86500000Y-54500000D03*
X86500000Y-52500000D03*
X86500000Y-50500000D03*
X86500000Y-48500000D03*
D11*
X86500000Y-46500000D03*
%TD*%
D10*
%TO.C,JI_cpu1*%
X61500000Y-68500000D03*
X61500000Y-66500000D03*
X61500000Y-64500000D03*
X61500000Y-62500000D03*
X61500000Y-60500000D03*
X61500000Y-58500000D03*
X61500000Y-56500000D03*
X61500000Y-54500000D03*
X61500000Y-52500000D03*
X61500000Y-50500000D03*
X61500000Y-48500000D03*
D11*
X61500000Y-46500000D03*
%TD*%
%TO.C,Ccpu1*%
G36*
G01*
X80300000Y-44625001D02*
X80300000Y-43774999D01*
G75*
G02*
X80549999Y-43525000I249999J0D01*
G01*
X81625001Y-43525000D01*
G75*
G02*
X81875000Y-43774999I0J-249999D01*
G01*
X81875000Y-44625001D01*
G75*
G02*
X81625001Y-44875000I-249999J0D01*
G01*
X80549999Y-44875000D01*
G75*
G02*
X80300000Y-44625001I0J249999D01*
G01*
G37*
G36*
G01*
X77425000Y-44625001D02*
X77425000Y-43774999D01*
G75*
G02*
X77674999Y-43525000I249999J0D01*
G01*
X78750001Y-43525000D01*
G75*
G02*
X79000000Y-43774999I0J-249999D01*
G01*
X79000000Y-44625001D01*
G75*
G02*
X78750001Y-44875000I-249999J0D01*
G01*
X77674999Y-44875000D01*
G75*
G02*
X77425000Y-44625001I0J249999D01*
G01*
G37*
%TD*%
D12*
%TO.C,Hrs1*%
X85850000Y-42150000D03*
%TD*%
%TO.C,Hdd1*%
X85850000Y-76850000D03*
%TD*%
%TO.C,His1*%
X62150000Y-42150000D03*
%TD*%
%TO.C,Hid1*%
X62150000Y-76850000D03*
%TD*%
D13*
%TO.C,LVOic1*%
X65850000Y-41900000D03*
X65850000Y-46500000D03*
X65850000Y-44200000D03*
D14*
X72150000Y-44200000D03*
%TD*%
D15*
%TO.C,Sfl1*%
X82500000Y-76750000D03*
X74700000Y-76750000D03*
%TD*%
%TO.C,Sen1*%
X74650000Y-50250000D03*
X82450000Y-50250000D03*
%TD*%
%TO.C,Ren1*%
G36*
G01*
X70574999Y-51400000D02*
X71825001Y-51400000D01*
G75*
G02*
X72075000Y-51649999I0J-249999D01*
G01*
X72075000Y-52450001D01*
G75*
G02*
X71825001Y-52700000I-249999J0D01*
G01*
X70574999Y-52700000D01*
G75*
G02*
X70325000Y-52450001I0J249999D01*
G01*
X70325000Y-51649999D01*
G75*
G02*
X70574999Y-51400000I249999J0D01*
G01*
G37*
G36*
G01*
X70574999Y-48300000D02*
X71825001Y-48300000D01*
G75*
G02*
X72075000Y-48549999I0J-249999D01*
G01*
X72075000Y-49350001D01*
G75*
G02*
X71825001Y-49600000I-249999J0D01*
G01*
X70574999Y-49600000D01*
G75*
G02*
X70325000Y-49350001I0J249999D01*
G01*
X70325000Y-48549999D01*
G75*
G02*
X70574999Y-48300000I249999J0D01*
G01*
G37*
%TD*%
D16*
%TO.C,U1*%
X73917500Y-64425000D03*
X72082500Y-64425000D03*
X73917500Y-60755000D03*
X72082500Y-60755000D03*
X73917500Y-62590000D03*
X72082500Y-62590000D03*
X74835000Y-63507500D03*
X73000000Y-63507500D03*
X71165000Y-63507500D03*
X74835000Y-61672500D03*
X71165000Y-61672500D03*
X73000000Y-61672500D03*
D17*
X74835000Y-64425000D03*
X71165000Y-64425000D03*
X73000000Y-64425000D03*
X74835000Y-60755000D03*
X71165000Y-60755000D03*
X73000000Y-60755000D03*
X74835000Y-62590000D03*
X71165000Y-62590000D03*
X73000000Y-62590000D03*
D18*
X68285000Y-72600000D03*
X69555000Y-72600000D03*
X70825000Y-72600000D03*
X72095000Y-72600000D03*
X73365000Y-72600000D03*
X79715000Y-72600000D03*
X78445000Y-72600000D03*
X77175000Y-72600000D03*
X75905000Y-72600000D03*
X74635000Y-72600000D03*
D19*
X82500000Y-55090000D03*
X82500000Y-56360000D03*
X82500000Y-57630000D03*
X82500000Y-58900000D03*
X82500000Y-60170000D03*
X82500000Y-61440000D03*
X82500000Y-62710000D03*
X82500000Y-63980000D03*
X82500000Y-65250000D03*
X82500000Y-66520000D03*
X82500000Y-67790000D03*
X82500000Y-69060000D03*
X82500000Y-70330000D03*
X82500000Y-71600000D03*
X65500000Y-55090000D03*
X65500000Y-56360000D03*
X65500000Y-57630000D03*
X65500000Y-58900000D03*
X65500000Y-60170000D03*
X65500000Y-61440000D03*
X65500000Y-62710000D03*
X65500000Y-63980000D03*
X65500000Y-65250000D03*
X65500000Y-66520000D03*
X65500000Y-67790000D03*
X65500000Y-69060000D03*
X65500000Y-70330000D03*
X65500000Y-71600000D03*
%TD*%
M02*
