M48
; DRILL file {KiCad 5.1.7-a382d34a8~88~ubuntu18.04.1} date Wed May 18 14:27:44 2022
; FORMAT={-:-/ absolute / metric / decimal}
; #@! TF.CreationDate,2022-05-18T14:27:44-05:00
; #@! TF.GenerationSoftware,Kicad,Pcbnew,5.1.7-a382d34a8~88~ubuntu18.04.1
; #@! TF.FileFunction,Plated,1,2,PTH
FMAT,2
METRIC
T1C0.254
T2C0.800
T3C2.000
%
G90
G05
T1
X71.165Y-61.672
X71.165Y-63.508
X72.082Y-60.755
X72.082Y-62.59
X72.082Y-64.425
X73.0Y-61.672
X73.0Y-63.508
X73.917Y-60.755
X73.917Y-62.59
X73.917Y-64.425
X74.835Y-61.672
X74.835Y-63.508
T2
X86.5Y-46.5
X86.5Y-48.5
X86.5Y-50.5
X86.5Y-52.5
X86.5Y-54.5
X86.5Y-56.5
X86.5Y-58.5
X86.5Y-60.5
X86.5Y-62.5
X86.5Y-64.5
X86.5Y-66.5
X86.5Y-68.5
X61.5Y-46.5
X61.5Y-48.5
X61.5Y-50.5
X61.5Y-52.5
X61.5Y-54.5
X61.5Y-56.5
X61.5Y-58.5
X61.5Y-60.5
X61.5Y-62.5
X61.5Y-64.5
X61.5Y-66.5
X61.5Y-68.5
T3
X62.15Y-76.85
X62.15Y-42.15
X85.85Y-76.85
X85.85Y-42.15
T0
M30
