%TF.GenerationSoftware,KiCad,Pcbnew,5.1.7-a382d34a8~88~ubuntu18.04.1*%
%TF.CreationDate,2022-05-18T14:25:08-05:00*%
%TF.ProjectId,Global_Val_Sen_CPU,476c6f62-616c-45f5-9661-6c5f53656e5f,rev?*%
%TF.SameCoordinates,Original*%
%TF.FileFunction,Legend,Top*%
%TF.FilePolarity,Positive*%
%FSLAX46Y46*%
G04 Gerber Fmt 4.6, Leading zero omitted, Abs format (unit mm)*
G04 Created by KiCad (PCBNEW 5.1.7-a382d34a8~88~ubuntu18.04.1) date 2022-05-18 14:25:08*
%MOMM*%
%LPD*%
G01*
G04 APERTURE LIST*
%ADD10C,0.120000*%
%ADD11C,0.200000*%
%ADD12C,0.127000*%
%ADD13C,0.150000*%
G04 APERTURE END LIST*
D10*
%TO.C,JD_cpu1*%
X85440000Y-47500000D02*
X87560000Y-47500000D01*
X85440000Y-47500000D02*
X85440000Y-69560000D01*
X85440000Y-69560000D02*
X87560000Y-69560000D01*
X87560000Y-47500000D02*
X87560000Y-69560000D01*
X87560000Y-45440000D02*
X87560000Y-46500000D01*
X86500000Y-45440000D02*
X87560000Y-45440000D01*
%TO.C,JI_cpu1*%
X60440000Y-47500000D02*
X62560000Y-47500000D01*
X60440000Y-47500000D02*
X60440000Y-69560000D01*
X60440000Y-69560000D02*
X62560000Y-69560000D01*
X62560000Y-47500000D02*
X62560000Y-69560000D01*
X62560000Y-45440000D02*
X62560000Y-46500000D01*
X61500000Y-45440000D02*
X62560000Y-45440000D01*
%TO.C,Ccpu1*%
X81250000Y-43265000D02*
X77165000Y-43265000D01*
X77165000Y-43265000D02*
X77165000Y-45135000D01*
X77165000Y-45135000D02*
X81250000Y-45135000D01*
%TO.C,LVOic1*%
X70910000Y-47610000D02*
X70910000Y-46350000D01*
X70910000Y-40790000D02*
X70910000Y-42050000D01*
X67150000Y-47610000D02*
X70910000Y-47610000D01*
X64900000Y-40790000D02*
X70910000Y-40790000D01*
%TO.C,Sfl1*%
X75540000Y-74900000D02*
X81660000Y-74900000D01*
X81660000Y-74900000D02*
X81660000Y-78600000D01*
X81660000Y-78600000D02*
X75540000Y-78600000D01*
X75540000Y-78600000D02*
X75540000Y-74900000D01*
%TO.C,Sen1*%
X81610000Y-52100000D02*
X75490000Y-52100000D01*
X75490000Y-52100000D02*
X75490000Y-48400000D01*
X75490000Y-48400000D02*
X81610000Y-48400000D01*
X81610000Y-48400000D02*
X81610000Y-52100000D01*
%TO.C,Ren1*%
X72110000Y-49772936D02*
X72110000Y-51227064D01*
X70290000Y-49772936D02*
X70290000Y-51227064D01*
D11*
%TO.C,U1*%
X63450000Y-54960000D02*
G75*
G03*
X63450000Y-54960000I-100000J0D01*
G01*
D12*
X83000000Y-73100000D02*
X83000000Y-72800000D01*
X80490000Y-73100000D02*
X83000000Y-73100000D01*
X65000000Y-73100000D02*
X67510000Y-73100000D01*
X65000000Y-72800000D02*
X65000000Y-73100000D01*
X83000000Y-53900000D02*
X83000000Y-54200000D01*
X65000000Y-53900000D02*
X83000000Y-53900000D01*
X65000000Y-54200000D02*
X65000000Y-53900000D01*
%TO.C,JD_cpu1*%
D13*
X83852380Y-51747619D02*
X84566666Y-51747619D01*
X84709523Y-51795238D01*
X84804761Y-51890476D01*
X84852380Y-52033333D01*
X84852380Y-52128571D01*
X84852380Y-51271428D02*
X83852380Y-51271428D01*
X83852380Y-51033333D01*
X83900000Y-50890476D01*
X83995238Y-50795238D01*
X84090476Y-50747619D01*
X84280952Y-50700000D01*
X84423809Y-50700000D01*
X84614285Y-50747619D01*
X84709523Y-50795238D01*
X84804761Y-50890476D01*
X84852380Y-51033333D01*
X84852380Y-51271428D01*
X84947619Y-50509523D02*
X84947619Y-49747619D01*
X84804761Y-49080952D02*
X84852380Y-49176190D01*
X84852380Y-49366666D01*
X84804761Y-49461904D01*
X84757142Y-49509523D01*
X84661904Y-49557142D01*
X84376190Y-49557142D01*
X84280952Y-49509523D01*
X84233333Y-49461904D01*
X84185714Y-49366666D01*
X84185714Y-49176190D01*
X84233333Y-49080952D01*
X84185714Y-48652380D02*
X85185714Y-48652380D01*
X84233333Y-48652380D02*
X84185714Y-48557142D01*
X84185714Y-48366666D01*
X84233333Y-48271428D01*
X84280952Y-48223809D01*
X84376190Y-48176190D01*
X84661904Y-48176190D01*
X84757142Y-48223809D01*
X84804761Y-48271428D01*
X84852380Y-48366666D01*
X84852380Y-48557142D01*
X84804761Y-48652380D01*
X84185714Y-47319047D02*
X84852380Y-47319047D01*
X84185714Y-47747619D02*
X84709523Y-47747619D01*
X84804761Y-47700000D01*
X84852380Y-47604761D01*
X84852380Y-47461904D01*
X84804761Y-47366666D01*
X84757142Y-47319047D01*
X84852380Y-46319047D02*
X84852380Y-46890476D01*
X84852380Y-46604761D02*
X83852380Y-46604761D01*
X83995238Y-46700000D01*
X84090476Y-46795238D01*
X84138095Y-46890476D01*
%TO.C,JI_cpu1*%
X63252380Y-51485714D02*
X63966666Y-51485714D01*
X64109523Y-51533333D01*
X64204761Y-51628571D01*
X64252380Y-51771428D01*
X64252380Y-51866666D01*
X64252380Y-51009523D02*
X63252380Y-51009523D01*
X64347619Y-50771428D02*
X64347619Y-50009523D01*
X64204761Y-49342857D02*
X64252380Y-49438095D01*
X64252380Y-49628571D01*
X64204761Y-49723809D01*
X64157142Y-49771428D01*
X64061904Y-49819047D01*
X63776190Y-49819047D01*
X63680952Y-49771428D01*
X63633333Y-49723809D01*
X63585714Y-49628571D01*
X63585714Y-49438095D01*
X63633333Y-49342857D01*
X63585714Y-48914285D02*
X64585714Y-48914285D01*
X63633333Y-48914285D02*
X63585714Y-48819047D01*
X63585714Y-48628571D01*
X63633333Y-48533333D01*
X63680952Y-48485714D01*
X63776190Y-48438095D01*
X64061904Y-48438095D01*
X64157142Y-48485714D01*
X64204761Y-48533333D01*
X64252380Y-48628571D01*
X64252380Y-48819047D01*
X64204761Y-48914285D01*
X63585714Y-47580952D02*
X64252380Y-47580952D01*
X63585714Y-48009523D02*
X64109523Y-48009523D01*
X64204761Y-47961904D01*
X64252380Y-47866666D01*
X64252380Y-47723809D01*
X64204761Y-47628571D01*
X64157142Y-47580952D01*
X64252380Y-46580952D02*
X64252380Y-47152380D01*
X64252380Y-46866666D02*
X63252380Y-46866666D01*
X63395238Y-46961904D01*
X63490476Y-47057142D01*
X63538095Y-47152380D01*
%TO.C,Ccpu1*%
X78150000Y-42807142D02*
X78102380Y-42854761D01*
X77959523Y-42902380D01*
X77864285Y-42902380D01*
X77721428Y-42854761D01*
X77626190Y-42759523D01*
X77578571Y-42664285D01*
X77530952Y-42473809D01*
X77530952Y-42330952D01*
X77578571Y-42140476D01*
X77626190Y-42045238D01*
X77721428Y-41950000D01*
X77864285Y-41902380D01*
X77959523Y-41902380D01*
X78102380Y-41950000D01*
X78150000Y-41997619D01*
X79007142Y-42854761D02*
X78911904Y-42902380D01*
X78721428Y-42902380D01*
X78626190Y-42854761D01*
X78578571Y-42807142D01*
X78530952Y-42711904D01*
X78530952Y-42426190D01*
X78578571Y-42330952D01*
X78626190Y-42283333D01*
X78721428Y-42235714D01*
X78911904Y-42235714D01*
X79007142Y-42283333D01*
X79435714Y-42235714D02*
X79435714Y-43235714D01*
X79435714Y-42283333D02*
X79530952Y-42235714D01*
X79721428Y-42235714D01*
X79816666Y-42283333D01*
X79864285Y-42330952D01*
X79911904Y-42426190D01*
X79911904Y-42711904D01*
X79864285Y-42807142D01*
X79816666Y-42854761D01*
X79721428Y-42902380D01*
X79530952Y-42902380D01*
X79435714Y-42854761D01*
X80769047Y-42235714D02*
X80769047Y-42902380D01*
X80340476Y-42235714D02*
X80340476Y-42759523D01*
X80388095Y-42854761D01*
X80483333Y-42902380D01*
X80626190Y-42902380D01*
X80721428Y-42854761D01*
X80769047Y-42807142D01*
X81769047Y-42902380D02*
X81197619Y-42902380D01*
X81483333Y-42902380D02*
X81483333Y-41902380D01*
X81388095Y-42045238D01*
X81292857Y-42140476D01*
X81197619Y-42188095D01*
%TO.C,Hrs1*%
X84573809Y-45152380D02*
X84573809Y-44152380D01*
X84573809Y-44628571D02*
X85145238Y-44628571D01*
X85145238Y-45152380D02*
X85145238Y-44152380D01*
X85621428Y-45152380D02*
X85621428Y-44485714D01*
X85621428Y-44676190D02*
X85669047Y-44580952D01*
X85716666Y-44533333D01*
X85811904Y-44485714D01*
X85907142Y-44485714D01*
X86192857Y-45104761D02*
X86288095Y-45152380D01*
X86478571Y-45152380D01*
X86573809Y-45104761D01*
X86621428Y-45009523D01*
X86621428Y-44961904D01*
X86573809Y-44866666D01*
X86478571Y-44819047D01*
X86335714Y-44819047D01*
X86240476Y-44771428D01*
X86192857Y-44676190D01*
X86192857Y-44628571D01*
X86240476Y-44533333D01*
X86335714Y-44485714D01*
X86478571Y-44485714D01*
X86573809Y-44533333D01*
X87573809Y-45152380D02*
X87002380Y-45152380D01*
X87288095Y-45152380D02*
X87288095Y-44152380D01*
X87192857Y-44295238D01*
X87097619Y-44390476D01*
X87002380Y-44438095D01*
%TO.C,Hdd1*%
X84183333Y-74402380D02*
X84183333Y-73402380D01*
X84183333Y-73878571D02*
X84754761Y-73878571D01*
X84754761Y-74402380D02*
X84754761Y-73402380D01*
X85659523Y-74402380D02*
X85659523Y-73402380D01*
X85659523Y-74354761D02*
X85564285Y-74402380D01*
X85373809Y-74402380D01*
X85278571Y-74354761D01*
X85230952Y-74307142D01*
X85183333Y-74211904D01*
X85183333Y-73926190D01*
X85230952Y-73830952D01*
X85278571Y-73783333D01*
X85373809Y-73735714D01*
X85564285Y-73735714D01*
X85659523Y-73783333D01*
X86564285Y-74402380D02*
X86564285Y-73402380D01*
X86564285Y-74354761D02*
X86469047Y-74402380D01*
X86278571Y-74402380D01*
X86183333Y-74354761D01*
X86135714Y-74307142D01*
X86088095Y-74211904D01*
X86088095Y-73926190D01*
X86135714Y-73830952D01*
X86183333Y-73783333D01*
X86278571Y-73735714D01*
X86469047Y-73735714D01*
X86564285Y-73783333D01*
X87564285Y-74402380D02*
X86992857Y-74402380D01*
X87278571Y-74402380D02*
X87278571Y-73402380D01*
X87183333Y-73545238D01*
X87088095Y-73640476D01*
X86992857Y-73688095D01*
%TO.C,His1*%
X60745238Y-45152380D02*
X60745238Y-44152380D01*
X60745238Y-44628571D02*
X61316666Y-44628571D01*
X61316666Y-45152380D02*
X61316666Y-44152380D01*
X61792857Y-45152380D02*
X61792857Y-44485714D01*
X61792857Y-44152380D02*
X61745238Y-44200000D01*
X61792857Y-44247619D01*
X61840476Y-44200000D01*
X61792857Y-44152380D01*
X61792857Y-44247619D01*
X62221428Y-45104761D02*
X62316666Y-45152380D01*
X62507142Y-45152380D01*
X62602380Y-45104761D01*
X62650000Y-45009523D01*
X62650000Y-44961904D01*
X62602380Y-44866666D01*
X62507142Y-44819047D01*
X62364285Y-44819047D01*
X62269047Y-44771428D01*
X62221428Y-44676190D01*
X62221428Y-44628571D01*
X62269047Y-44533333D01*
X62364285Y-44485714D01*
X62507142Y-44485714D01*
X62602380Y-44533333D01*
X63602380Y-45152380D02*
X63030952Y-45152380D01*
X63316666Y-45152380D02*
X63316666Y-44152380D01*
X63221428Y-44295238D01*
X63126190Y-44390476D01*
X63030952Y-44438095D01*
%TO.C,Hid1*%
X60697619Y-74402380D02*
X60697619Y-73402380D01*
X60697619Y-73878571D02*
X61269047Y-73878571D01*
X61269047Y-74402380D02*
X61269047Y-73402380D01*
X61745238Y-74402380D02*
X61745238Y-73735714D01*
X61745238Y-73402380D02*
X61697619Y-73450000D01*
X61745238Y-73497619D01*
X61792857Y-73450000D01*
X61745238Y-73402380D01*
X61745238Y-73497619D01*
X62650000Y-74402380D02*
X62650000Y-73402380D01*
X62650000Y-74354761D02*
X62554761Y-74402380D01*
X62364285Y-74402380D01*
X62269047Y-74354761D01*
X62221428Y-74307142D01*
X62173809Y-74211904D01*
X62173809Y-73926190D01*
X62221428Y-73830952D01*
X62269047Y-73783333D01*
X62364285Y-73735714D01*
X62554761Y-73735714D01*
X62650000Y-73783333D01*
X63650000Y-74402380D02*
X63078571Y-74402380D01*
X63364285Y-74402380D02*
X63364285Y-73402380D01*
X63269047Y-73545238D01*
X63173809Y-73640476D01*
X63078571Y-73688095D01*
%TO.C,LVOic1*%
X74802380Y-45985714D02*
X74802380Y-46461904D01*
X73802380Y-46461904D01*
X73802380Y-45795238D02*
X74802380Y-45461904D01*
X73802380Y-45128571D01*
X73802380Y-44604761D02*
X73802380Y-44414285D01*
X73850000Y-44319047D01*
X73945238Y-44223809D01*
X74135714Y-44176190D01*
X74469047Y-44176190D01*
X74659523Y-44223809D01*
X74754761Y-44319047D01*
X74802380Y-44414285D01*
X74802380Y-44604761D01*
X74754761Y-44700000D01*
X74659523Y-44795238D01*
X74469047Y-44842857D01*
X74135714Y-44842857D01*
X73945238Y-44795238D01*
X73850000Y-44700000D01*
X73802380Y-44604761D01*
X74802380Y-43747619D02*
X74135714Y-43747619D01*
X73802380Y-43747619D02*
X73850000Y-43795238D01*
X73897619Y-43747619D01*
X73850000Y-43700000D01*
X73802380Y-43747619D01*
X73897619Y-43747619D01*
X74754761Y-42842857D02*
X74802380Y-42938095D01*
X74802380Y-43128571D01*
X74754761Y-43223809D01*
X74707142Y-43271428D01*
X74611904Y-43319047D01*
X74326190Y-43319047D01*
X74230952Y-43271428D01*
X74183333Y-43223809D01*
X74135714Y-43128571D01*
X74135714Y-42938095D01*
X74183333Y-42842857D01*
X74802380Y-41890476D02*
X74802380Y-42461904D01*
X74802380Y-42176190D02*
X73802380Y-42176190D01*
X73945238Y-42271428D01*
X74040476Y-42366666D01*
X74088095Y-42461904D01*
%TO.C,Sfl1*%
X77440476Y-77054761D02*
X77583333Y-77102380D01*
X77821428Y-77102380D01*
X77916666Y-77054761D01*
X77964285Y-77007142D01*
X78011904Y-76911904D01*
X78011904Y-76816666D01*
X77964285Y-76721428D01*
X77916666Y-76673809D01*
X77821428Y-76626190D01*
X77630952Y-76578571D01*
X77535714Y-76530952D01*
X77488095Y-76483333D01*
X77440476Y-76388095D01*
X77440476Y-76292857D01*
X77488095Y-76197619D01*
X77535714Y-76150000D01*
X77630952Y-76102380D01*
X77869047Y-76102380D01*
X78011904Y-76150000D01*
X78297619Y-76435714D02*
X78678571Y-76435714D01*
X78440476Y-77102380D02*
X78440476Y-76245238D01*
X78488095Y-76150000D01*
X78583333Y-76102380D01*
X78678571Y-76102380D01*
X79154761Y-77102380D02*
X79059523Y-77054761D01*
X79011904Y-76959523D01*
X79011904Y-76102380D01*
X80059523Y-77102380D02*
X79488095Y-77102380D01*
X79773809Y-77102380D02*
X79773809Y-76102380D01*
X79678571Y-76245238D01*
X79583333Y-76340476D01*
X79488095Y-76388095D01*
%TO.C,Sen1*%
X77057142Y-50904761D02*
X77200000Y-50952380D01*
X77438095Y-50952380D01*
X77533333Y-50904761D01*
X77580952Y-50857142D01*
X77628571Y-50761904D01*
X77628571Y-50666666D01*
X77580952Y-50571428D01*
X77533333Y-50523809D01*
X77438095Y-50476190D01*
X77247619Y-50428571D01*
X77152380Y-50380952D01*
X77104761Y-50333333D01*
X77057142Y-50238095D01*
X77057142Y-50142857D01*
X77104761Y-50047619D01*
X77152380Y-50000000D01*
X77247619Y-49952380D01*
X77485714Y-49952380D01*
X77628571Y-50000000D01*
X78438095Y-50904761D02*
X78342857Y-50952380D01*
X78152380Y-50952380D01*
X78057142Y-50904761D01*
X78009523Y-50809523D01*
X78009523Y-50428571D01*
X78057142Y-50333333D01*
X78152380Y-50285714D01*
X78342857Y-50285714D01*
X78438095Y-50333333D01*
X78485714Y-50428571D01*
X78485714Y-50523809D01*
X78009523Y-50619047D01*
X78914285Y-50285714D02*
X78914285Y-50952380D01*
X78914285Y-50380952D02*
X78961904Y-50333333D01*
X79057142Y-50285714D01*
X79200000Y-50285714D01*
X79295238Y-50333333D01*
X79342857Y-50428571D01*
X79342857Y-50952380D01*
X80342857Y-50952380D02*
X79771428Y-50952380D01*
X80057142Y-50952380D02*
X80057142Y-49952380D01*
X79961904Y-50095238D01*
X79866666Y-50190476D01*
X79771428Y-50238095D01*
%TO.C,Ren1*%
X73402380Y-51797619D02*
X72926190Y-52130952D01*
X73402380Y-52369047D02*
X72402380Y-52369047D01*
X72402380Y-51988095D01*
X72450000Y-51892857D01*
X72497619Y-51845238D01*
X72592857Y-51797619D01*
X72735714Y-51797619D01*
X72830952Y-51845238D01*
X72878571Y-51892857D01*
X72926190Y-51988095D01*
X72926190Y-52369047D01*
X73354761Y-50988095D02*
X73402380Y-51083333D01*
X73402380Y-51273809D01*
X73354761Y-51369047D01*
X73259523Y-51416666D01*
X72878571Y-51416666D01*
X72783333Y-51369047D01*
X72735714Y-51273809D01*
X72735714Y-51083333D01*
X72783333Y-50988095D01*
X72878571Y-50940476D01*
X72973809Y-50940476D01*
X73069047Y-51416666D01*
X72735714Y-50511904D02*
X73402380Y-50511904D01*
X72830952Y-50511904D02*
X72783333Y-50464285D01*
X72735714Y-50369047D01*
X72735714Y-50226190D01*
X72783333Y-50130952D01*
X72878571Y-50083333D01*
X73402380Y-50083333D01*
X73402380Y-49083333D02*
X73402380Y-49654761D01*
X73402380Y-49369047D02*
X72402380Y-49369047D01*
X72545238Y-49464285D01*
X72640476Y-49559523D01*
X72688095Y-49654761D01*
%TO.C,U1*%
X64237225Y-52301755D02*
X64237225Y-53112203D01*
X64284898Y-53207550D01*
X64332572Y-53255224D01*
X64427918Y-53302897D01*
X64618612Y-53302897D01*
X64713959Y-53255224D01*
X64761632Y-53207550D01*
X64809306Y-53112203D01*
X64809306Y-52301755D01*
X65810448Y-53302897D02*
X65238367Y-53302897D01*
X65524407Y-53302897D02*
X65524407Y-52301755D01*
X65429060Y-52444775D01*
X65333714Y-52540122D01*
X65238367Y-52587796D01*
%TD*%
M02*
