%TF.GenerationSoftware,KiCad,Pcbnew,5.1.7-a382d34a8~88~ubuntu18.04.1*%
%TF.CreationDate,2022-05-18T14:25:08-05:00*%
%TF.ProjectId,Global_Val_Sen_CPU,476c6f62-616c-45f5-9661-6c5f53656e5f,rev?*%
%TF.SameCoordinates,Original*%
%TF.FileFunction,Copper,L1,Top*%
%TF.FilePolarity,Positive*%
%FSLAX46Y46*%
G04 Gerber Fmt 4.6, Leading zero omitted, Abs format (unit mm)*
G04 Created by KiCad (PCBNEW 5.1.7-a382d34a8~88~ubuntu18.04.1) date 2022-05-18 14:25:08*
%MOMM*%
%LPD*%
G01*
G04 APERTURE LIST*
%TA.AperFunction,ComponentPad*%
%ADD10O,1.350000X1.350000*%
%TD*%
%TA.AperFunction,ComponentPad*%
%ADD11R,1.350000X1.350000*%
%TD*%
%TA.AperFunction,ComponentPad*%
%ADD12C,2.200000*%
%TD*%
%TA.AperFunction,SMDPad,CuDef*%
%ADD13R,2.000000X1.500000*%
%TD*%
%TA.AperFunction,SMDPad,CuDef*%
%ADD14R,2.000000X3.800000*%
%TD*%
%TA.AperFunction,SMDPad,CuDef*%
%ADD15R,1.500000X1.500000*%
%TD*%
%TA.AperFunction,ComponentPad*%
%ADD16C,0.762000*%
%TD*%
%TA.AperFunction,SMDPad,CuDef*%
%ADD17R,1.330000X1.330000*%
%TD*%
%TA.AperFunction,SMDPad,CuDef*%
%ADD18R,0.900000X2.000000*%
%TD*%
%TA.AperFunction,SMDPad,CuDef*%
%ADD19R,2.000000X0.900000*%
%TD*%
%TA.AperFunction,Conductor*%
%ADD20C,1.400000*%
%TD*%
%TA.AperFunction,Conductor*%
%ADD21C,0.800000*%
%TD*%
%TA.AperFunction,Conductor*%
%ADD22C,0.700000*%
%TD*%
%TA.AperFunction,Conductor*%
%ADD23C,1.100000*%
%TD*%
%TA.AperFunction,Conductor*%
%ADD24C,0.900000*%
%TD*%
%TA.AperFunction,Conductor*%
%ADD25C,1.000000*%
%TD*%
%TA.AperFunction,Conductor*%
%ADD26C,0.254000*%
%TD*%
%TA.AperFunction,Conductor*%
%ADD27C,0.100000*%
%TD*%
G04 APERTURE END LIST*
D10*
%TO.P,JD_cpu1,12*%
%TO.N,CS*%
X86500000Y-68500000D03*
%TO.P,JD_cpu1,11*%
%TO.N,CLK*%
X86500000Y-66500000D03*
%TO.P,JD_cpu1,10*%
%TO.N,MISO*%
X86500000Y-64500000D03*
%TO.P,JD_cpu1,9*%
%TO.N,SDA0*%
X86500000Y-62500000D03*
%TO.P,JD_cpu1,8*%
%TO.N,RX*%
X86500000Y-60500000D03*
%TO.P,JD_cpu1,7*%
%TO.N,TX*%
X86500000Y-58500000D03*
%TO.P,JD_cpu1,6*%
%TO.N,SCL0*%
X86500000Y-56500000D03*
%TO.P,JD_cpu1,5*%
%TO.N,MOSI*%
X86500000Y-54500000D03*
%TO.P,JD_cpu1,4*%
%TO.N,GND*%
X86500000Y-52500000D03*
%TO.P,JD_cpu1,3*%
X86500000Y-50500000D03*
%TO.P,JD_cpu1,2*%
%TO.N,+3V3*%
X86500000Y-48500000D03*
D11*
%TO.P,JD_cpu1,1*%
%TO.N,+5V*%
X86500000Y-46500000D03*
%TD*%
D10*
%TO.P,JI_cpu1,12*%
%TO.N,IO33*%
X61500000Y-68500000D03*
%TO.P,JI_cpu1,11*%
%TO.N,IO32*%
X61500000Y-66500000D03*
%TO.P,JI_cpu1,10*%
%TO.N,I35*%
X61500000Y-64500000D03*
%TO.P,JI_cpu1,9*%
%TO.N,I34*%
X61500000Y-62500000D03*
%TO.P,JI_cpu1,8*%
%TO.N,RX*%
X61500000Y-60500000D03*
%TO.P,JI_cpu1,7*%
%TO.N,TX*%
X61500000Y-58500000D03*
%TO.P,JI_cpu1,6*%
%TO.N,S_VN*%
X61500000Y-56500000D03*
%TO.P,JI_cpu1,5*%
%TO.N,S_VP*%
X61500000Y-54500000D03*
%TO.P,JI_cpu1,4*%
%TO.N,GND*%
X61500000Y-52500000D03*
%TO.P,JI_cpu1,3*%
X61500000Y-50500000D03*
%TO.P,JI_cpu1,2*%
%TO.N,+3V3*%
X61500000Y-48500000D03*
D11*
%TO.P,JI_cpu1,1*%
%TO.N,+5V*%
X61500000Y-46500000D03*
%TD*%
%TO.P,Ccpu1,2*%
%TO.N,GND*%
%TA.AperFunction,SMDPad,CuDef*%
G36*
G01*
X80300000Y-44625001D02*
X80300000Y-43774999D01*
G75*
G02*
X80549999Y-43525000I249999J0D01*
G01*
X81625001Y-43525000D01*
G75*
G02*
X81875000Y-43774999I0J-249999D01*
G01*
X81875000Y-44625001D01*
G75*
G02*
X81625001Y-44875000I-249999J0D01*
G01*
X80549999Y-44875000D01*
G75*
G02*
X80300000Y-44625001I0J249999D01*
G01*
G37*
%TD.AperFunction*%
%TO.P,Ccpu1,1*%
%TO.N,+3V3*%
%TA.AperFunction,SMDPad,CuDef*%
G36*
G01*
X77425000Y-44625001D02*
X77425000Y-43774999D01*
G75*
G02*
X77674999Y-43525000I249999J0D01*
G01*
X78750001Y-43525000D01*
G75*
G02*
X79000000Y-43774999I0J-249999D01*
G01*
X79000000Y-44625001D01*
G75*
G02*
X78750001Y-44875000I-249999J0D01*
G01*
X77674999Y-44875000D01*
G75*
G02*
X77425000Y-44625001I0J249999D01*
G01*
G37*
%TD.AperFunction*%
%TD*%
D12*
%TO.P,Hrs1,1*%
%TO.N,N/C*%
X85850000Y-42150000D03*
%TD*%
%TO.P,Hdd1,1*%
%TO.N,N/C*%
X85850000Y-76850000D03*
%TD*%
%TO.P,His1,*%
%TO.N,*%
X62150000Y-42150000D03*
%TD*%
%TO.P,Hid1,*%
%TO.N,*%
X62150000Y-76850000D03*
%TD*%
D13*
%TO.P,LVOic1,1*%
%TO.N,GND*%
X65850000Y-41900000D03*
%TO.P,LVOic1,3*%
%TO.N,+5V*%
X65850000Y-46500000D03*
%TO.P,LVOic1,2*%
%TO.N,+3V3*%
X65850000Y-44200000D03*
D14*
X72150000Y-44200000D03*
%TD*%
D15*
%TO.P,Sfl1,2*%
%TO.N,Net-(Sfl1-Pad2)*%
X82500000Y-76750000D03*
%TO.P,Sfl1,1*%
%TO.N,GND*%
X74700000Y-76750000D03*
%TD*%
%TO.P,Sen1,2*%
%TO.N,Net-(Ren1-Pad2)*%
X74650000Y-50250000D03*
%TO.P,Sen1,1*%
%TO.N,GND*%
X82450000Y-50250000D03*
%TD*%
%TO.P,Ren1,2*%
%TO.N,Net-(Ren1-Pad2)*%
%TA.AperFunction,SMDPad,CuDef*%
G36*
G01*
X70574999Y-51400000D02*
X71825001Y-51400000D01*
G75*
G02*
X72075000Y-51649999I0J-249999D01*
G01*
X72075000Y-52450001D01*
G75*
G02*
X71825001Y-52700000I-249999J0D01*
G01*
X70574999Y-52700000D01*
G75*
G02*
X70325000Y-52450001I0J249999D01*
G01*
X70325000Y-51649999D01*
G75*
G02*
X70574999Y-51400000I249999J0D01*
G01*
G37*
%TD.AperFunction*%
%TO.P,Ren1,1*%
%TO.N,+3V3*%
%TA.AperFunction,SMDPad,CuDef*%
G36*
G01*
X70574999Y-48300000D02*
X71825001Y-48300000D01*
G75*
G02*
X72075000Y-48549999I0J-249999D01*
G01*
X72075000Y-49350001D01*
G75*
G02*
X71825001Y-49600000I-249999J0D01*
G01*
X70574999Y-49600000D01*
G75*
G02*
X70325000Y-49350001I0J249999D01*
G01*
X70325000Y-48549999D01*
G75*
G02*
X70574999Y-48300000I249999J0D01*
G01*
G37*
%TD.AperFunction*%
%TD*%
D16*
%TO.P,U1,G.21*%
%TO.N,GND*%
X73917500Y-64425000D03*
%TO.P,U1,G.22*%
X72082500Y-64425000D03*
%TO.P,U1,G.11*%
X73917500Y-60755000D03*
%TO.P,U1,G.12*%
X72082500Y-60755000D03*
%TO.P,U1,G.16*%
X73917500Y-62590000D03*
%TO.P,U1,G.17*%
X72082500Y-62590000D03*
%TO.P,U1,G.18*%
X74835000Y-63507500D03*
%TO.P,U1,G.19*%
X73000000Y-63507500D03*
%TO.P,U1,G.20*%
X71165000Y-63507500D03*
%TO.P,U1,G.13*%
X74835000Y-61672500D03*
%TO.P,U1,G.15*%
X71165000Y-61672500D03*
%TO.P,U1,G.14*%
X73000000Y-61672500D03*
D17*
%TO.P,U1,G.8*%
X74835000Y-64425000D03*
%TO.P,U1,G.10*%
X71165000Y-64425000D03*
%TO.P,U1,G.9*%
X73000000Y-64425000D03*
%TO.P,U1,G.1*%
X74835000Y-60755000D03*
%TO.P,U1,G.4*%
X71165000Y-60755000D03*
%TO.P,U1,G.2*%
X73000000Y-60755000D03*
%TO.P,U1,G.5*%
X74835000Y-62590000D03*
%TO.P,U1,G.7*%
X71165000Y-62590000D03*
%TO.P,U1,G.6*%
X73000000Y-62590000D03*
D18*
%TO.P,U1,15*%
X68285000Y-72600000D03*
%TO.P,U1,16*%
%TO.N,Net-(U1-Pad16)*%
X69555000Y-72600000D03*
%TO.P,U1,17*%
%TO.N,Net-(U1-Pad17)*%
X70825000Y-72600000D03*
%TO.P,U1,18*%
%TO.N,Net-(U1-Pad18)*%
X72095000Y-72600000D03*
%TO.P,U1,19*%
%TO.N,Net-(U1-Pad19)*%
X73365000Y-72600000D03*
%TO.P,U1,24*%
%TO.N,Net-(U1-Pad24)*%
X79715000Y-72600000D03*
%TO.P,U1,23*%
%TO.N,Net-(U1-Pad23)*%
X78445000Y-72600000D03*
%TO.P,U1,22*%
%TO.N,Net-(U1-Pad22)*%
X77175000Y-72600000D03*
%TO.P,U1,21*%
%TO.N,Net-(U1-Pad21)*%
X75905000Y-72600000D03*
%TO.P,U1,20*%
%TO.N,Net-(U1-Pad20)*%
X74635000Y-72600000D03*
D19*
%TO.P,U1,38*%
%TO.N,GND*%
X82500000Y-55090000D03*
%TO.P,U1,37*%
%TO.N,MOSI*%
X82500000Y-56360000D03*
%TO.P,U1,36*%
%TO.N,SCL0*%
X82500000Y-57630000D03*
%TO.P,U1,35*%
%TO.N,TX*%
X82500000Y-58900000D03*
%TO.P,U1,34*%
%TO.N,RX*%
X82500000Y-60170000D03*
%TO.P,U1,33*%
%TO.N,SDA0*%
X82500000Y-61440000D03*
%TO.P,U1,32*%
%TO.N,N/C*%
X82500000Y-62710000D03*
%TO.P,U1,31*%
%TO.N,MISO*%
X82500000Y-63980000D03*
%TO.P,U1,30*%
%TO.N,CLK*%
X82500000Y-65250000D03*
%TO.P,U1,29*%
%TO.N,CS*%
X82500000Y-66520000D03*
%TO.P,U1,28*%
%TO.N,Net-(U1-Pad28)*%
X82500000Y-67790000D03*
%TO.P,U1,27*%
%TO.N,Net-(U1-Pad27)*%
X82500000Y-69060000D03*
%TO.P,U1,26*%
%TO.N,Net-(U1-Pad26)*%
X82500000Y-70330000D03*
%TO.P,U1,25*%
%TO.N,Net-(Sfl1-Pad2)*%
X82500000Y-71600000D03*
%TO.P,U1,1*%
%TO.N,GND*%
X65500000Y-55090000D03*
%TO.P,U1,2*%
%TO.N,+3V3*%
X65500000Y-56360000D03*
%TO.P,U1,3*%
%TO.N,Net-(Ren1-Pad2)*%
X65500000Y-57630000D03*
%TO.P,U1,4*%
%TO.N,S_VP*%
X65500000Y-58900000D03*
%TO.P,U1,5*%
%TO.N,S_VN*%
X65500000Y-60170000D03*
%TO.P,U1,6*%
%TO.N,I34*%
X65500000Y-61440000D03*
%TO.P,U1,7*%
%TO.N,I35*%
X65500000Y-62710000D03*
%TO.P,U1,8*%
%TO.N,IO32*%
X65500000Y-63980000D03*
%TO.P,U1,9*%
%TO.N,IO33*%
X65500000Y-65250000D03*
%TO.P,U1,10*%
%TO.N,Net-(U1-Pad10)*%
X65500000Y-66520000D03*
%TO.P,U1,11*%
%TO.N,Net-(U1-Pad11)*%
X65500000Y-67790000D03*
%TO.P,U1,12*%
%TO.N,Net-(U1-Pad12)*%
X65500000Y-69060000D03*
%TO.P,U1,13*%
%TO.N,Net-(U1-Pad13)*%
X65500000Y-70330000D03*
%TO.P,U1,14*%
%TO.N,Net-(U1-Pad14)*%
X65500000Y-71600000D03*
%TD*%
D20*
%TO.N,Net-(Ren1-Pad2)*%
X72850000Y-52050000D02*
X74650000Y-50250000D01*
X71200000Y-52050000D02*
X72850000Y-52050000D01*
D21*
X71200000Y-52050000D02*
X71200000Y-54750000D01*
X68320000Y-57630000D02*
X65500000Y-57630000D01*
X71200000Y-54750000D02*
X68320000Y-57630000D01*
%TO.N,+3V3*%
X65500000Y-56360000D02*
X67490000Y-56360000D01*
X67490000Y-56360000D02*
X69250000Y-54600000D01*
X69250000Y-54600000D02*
X69250000Y-50050000D01*
X70350000Y-48950000D02*
X71200000Y-48950000D01*
X69250000Y-50050000D02*
X70350000Y-48950000D01*
D20*
X71200000Y-45150000D02*
X72150000Y-44200000D01*
X71200000Y-48950000D02*
X71200000Y-45150000D01*
X70750000Y-48500000D02*
X71200000Y-48950000D01*
X61500000Y-48500000D02*
X70750000Y-48500000D01*
X72150000Y-44200000D02*
X77450000Y-44200000D01*
D22*
X65850000Y-44200000D02*
X72150000Y-44200000D01*
D23*
%TO.N,GND*%
X82700000Y-50500000D02*
X82450000Y-50250000D01*
X86500000Y-50500000D02*
X82700000Y-50500000D01*
D24*
X65500000Y-50850000D02*
X65850000Y-50500000D01*
D25*
X61500000Y-50500000D02*
X65850000Y-50500000D01*
D24*
X65500000Y-55090000D02*
X65500000Y-50850000D01*
X82500000Y-50300000D02*
X82450000Y-50250000D01*
X80500000Y-55090000D02*
X82500000Y-55090000D01*
X74835000Y-60755000D02*
X80500000Y-55090000D01*
D21*
X68285000Y-67305000D02*
X71165000Y-64425000D01*
X68285000Y-72600000D02*
X68285000Y-67305000D01*
D24*
X71165000Y-64425000D02*
X74835000Y-64425000D01*
X74835000Y-63507500D02*
X74835000Y-62590000D01*
X74835000Y-61672500D02*
X74835000Y-62590000D01*
X73917500Y-62590000D02*
X73000000Y-62590000D01*
X73000000Y-62590000D02*
X73000000Y-63507500D01*
X73917500Y-60755000D02*
X72082500Y-60755000D01*
X71165000Y-61672500D02*
X71165000Y-63507500D01*
X71165000Y-62590000D02*
X73000000Y-62590000D01*
X73000000Y-62590000D02*
X73000000Y-60755000D01*
X73000000Y-62590000D02*
X73000000Y-64425000D01*
X73000000Y-62590000D02*
X74835000Y-62590000D01*
D21*
X68285000Y-72600000D02*
X68285000Y-75185000D01*
X69850000Y-76750000D02*
X74700000Y-76750000D01*
X68285000Y-75185000D02*
X69850000Y-76750000D01*
D23*
X73917500Y-60755000D02*
X74835000Y-60755000D01*
X72082500Y-60755000D02*
X71165000Y-60755000D01*
D20*
X61500000Y-52500000D02*
X63900000Y-52500000D01*
X65500000Y-50900000D02*
X65500000Y-50850000D01*
X63900000Y-52500000D02*
X65500000Y-50900000D01*
X82700000Y-52500000D02*
X82500000Y-52300000D01*
X86500000Y-52500000D02*
X82700000Y-52500000D01*
D24*
X82500000Y-55090000D02*
X82500000Y-52300000D01*
X82500000Y-52300000D02*
X82500000Y-50300000D01*
D20*
X68800000Y-41900000D02*
X65850000Y-41900000D01*
D24*
%TO.N,Net-(Sfl1-Pad2)*%
X82500000Y-71600000D02*
X82500000Y-76750000D01*
D20*
%TO.N,+5V*%
X61500000Y-46500000D02*
X64850000Y-46500000D01*
D21*
%TO.N,RX*%
X82500000Y-60170000D02*
X85020000Y-60170000D01*
X85350000Y-60500000D02*
X86500000Y-60500000D01*
X85020000Y-60170000D02*
X85350000Y-60500000D01*
%TO.N,TX*%
X82500000Y-58900000D02*
X85000000Y-58900000D01*
X85400000Y-58500000D02*
X86500000Y-58500000D01*
X85000000Y-58900000D02*
X85400000Y-58500000D01*
%TO.N,MOSI*%
X85620002Y-54500000D02*
X86500000Y-54500000D01*
X83760002Y-56360000D02*
X85620002Y-54500000D01*
X82500000Y-56360000D02*
X83760002Y-56360000D01*
%TO.N,SDA0*%
X86500000Y-62500000D02*
X85150000Y-62500000D01*
X84090000Y-61440000D02*
X82500000Y-61440000D01*
X85150000Y-62500000D02*
X84090000Y-61440000D01*
%TO.N,SCL0*%
X86330000Y-56670000D02*
X86500000Y-56500000D01*
X86500000Y-56500000D02*
X85650000Y-56500000D01*
X84520000Y-57630000D02*
X82500000Y-57630000D01*
X85650000Y-56500000D02*
X84520000Y-57630000D01*
%TO.N,MISO*%
X85980000Y-63980000D02*
X82500000Y-63980000D01*
X86500000Y-64500000D02*
X85980000Y-63980000D01*
%TO.N,CLK*%
X82500000Y-65250000D02*
X84900000Y-65250000D01*
X86150000Y-66500000D02*
X86500000Y-66500000D01*
X84900000Y-65250000D02*
X86150000Y-66500000D01*
%TO.N,CS*%
X86500000Y-68500000D02*
X86050000Y-68500000D01*
X84070000Y-66520000D02*
X82500000Y-66520000D01*
X86050000Y-68500000D02*
X84070000Y-66520000D01*
%TO.N,IO33*%
X63600000Y-66050000D02*
X64400000Y-65250000D01*
X64400000Y-65250000D02*
X65500000Y-65250000D01*
X61500000Y-68500000D02*
X63200000Y-68500000D01*
X63600000Y-68100000D02*
X63600000Y-66050000D01*
X63200000Y-68500000D02*
X63600000Y-68100000D01*
%TO.N,IO32*%
X65500000Y-63980000D02*
X64220000Y-63980000D01*
X61735773Y-66500000D02*
X61500000Y-66500000D01*
X62950000Y-65285773D02*
X61735773Y-66500000D01*
X62950000Y-65250000D02*
X62950000Y-65285773D01*
X64220000Y-63980000D02*
X62950000Y-65250000D01*
%TO.N,I35*%
X65500000Y-62710000D02*
X63690000Y-62710000D01*
X61900000Y-64500000D02*
X61500000Y-64500000D01*
X63690000Y-62710000D02*
X61900000Y-64500000D01*
%TO.N,I34*%
X61500000Y-62500000D02*
X62200000Y-62500000D01*
X63260000Y-61440000D02*
X65500000Y-61440000D01*
X62200000Y-62500000D02*
X63260000Y-61440000D01*
D22*
%TO.N,S_VN*%
X61500000Y-56500000D02*
X61850000Y-56500000D01*
X61850000Y-56500000D02*
X62900000Y-57550000D01*
X62900000Y-57550000D02*
X62900000Y-59550000D01*
X63520000Y-60170000D02*
X65500000Y-60170000D01*
X62900000Y-59550000D02*
X63520000Y-60170000D01*
%TO.N,S_VP*%
X63850000Y-55500000D02*
X62850000Y-54500000D01*
X63850000Y-58420002D02*
X63850000Y-55500000D01*
X62850000Y-54500000D02*
X61500000Y-54500000D01*
X65500000Y-58900000D02*
X64329998Y-58900000D01*
X64329998Y-58900000D02*
X63850000Y-58420002D01*
%TD*%
D26*
%TO.N,GND*%
X64259307Y-40755311D02*
X64193657Y-40878134D01*
X64153230Y-41011404D01*
X64139579Y-41150000D01*
X64143000Y-41560250D01*
X64319750Y-41737000D01*
X65687000Y-41737000D01*
X65687000Y-41717000D01*
X66013000Y-41717000D01*
X66013000Y-41737000D01*
X67380250Y-41737000D01*
X67557000Y-41560250D01*
X67560421Y-41150000D01*
X67546770Y-41011404D01*
X67506343Y-40878134D01*
X67440693Y-40755311D01*
X67421562Y-40732000D01*
X84719674Y-40732000D01*
X84698105Y-40746412D01*
X84446412Y-40998105D01*
X84248658Y-41294065D01*
X84112442Y-41622918D01*
X84043000Y-41972026D01*
X84043000Y-42327974D01*
X84112442Y-42677082D01*
X84248658Y-43005935D01*
X84446412Y-43301895D01*
X84698105Y-43553588D01*
X84994065Y-43751342D01*
X85322918Y-43887558D01*
X85672026Y-43957000D01*
X86027974Y-43957000D01*
X86377082Y-43887558D01*
X86705935Y-43751342D01*
X87001895Y-43553588D01*
X87253588Y-43301895D01*
X87268000Y-43280326D01*
X87268000Y-45123740D01*
X87175000Y-45114580D01*
X85825000Y-45114580D01*
X85686404Y-45128231D01*
X85553134Y-45168658D01*
X85430312Y-45234307D01*
X85322657Y-45322657D01*
X85234307Y-45430312D01*
X85168658Y-45553134D01*
X85128231Y-45686404D01*
X85114580Y-45825000D01*
X85114580Y-47175000D01*
X85128231Y-47313596D01*
X85168658Y-47446866D01*
X85234307Y-47569688D01*
X85322657Y-47677343D01*
X85364577Y-47711746D01*
X85275287Y-47845377D01*
X85171109Y-48096885D01*
X85118000Y-48363885D01*
X85118000Y-48636115D01*
X85171109Y-48903115D01*
X85275287Y-49154623D01*
X85426530Y-49380974D01*
X85550516Y-49504960D01*
X85448746Y-49602890D01*
X85293928Y-49825217D01*
X85185459Y-50073476D01*
X85170041Y-50124323D01*
X85305823Y-50337000D01*
X86337000Y-50337000D01*
X86337000Y-50317000D01*
X86663000Y-50317000D01*
X86663000Y-50337000D01*
X86683000Y-50337000D01*
X86683000Y-50663000D01*
X86663000Y-50663000D01*
X86663000Y-52337000D01*
X86683000Y-52337000D01*
X86683000Y-52663000D01*
X86663000Y-52663000D01*
X86663000Y-52683000D01*
X86337000Y-52683000D01*
X86337000Y-52663000D01*
X85305823Y-52663000D01*
X85170041Y-52875677D01*
X85185459Y-52926524D01*
X85293928Y-53174783D01*
X85448746Y-53397110D01*
X85455724Y-53403824D01*
X85402992Y-53409018D01*
X85194322Y-53472317D01*
X85002010Y-53575110D01*
X84833448Y-53713446D01*
X84798784Y-53755684D01*
X84163323Y-54391145D01*
X84156343Y-54368134D01*
X84090693Y-54245311D01*
X84002344Y-54137656D01*
X83894689Y-54049307D01*
X83771866Y-53983657D01*
X83638596Y-53943230D01*
X83500000Y-53929579D01*
X82839750Y-53933000D01*
X82663000Y-54109750D01*
X82663000Y-54927000D01*
X82683000Y-54927000D01*
X82683000Y-55199580D01*
X81500000Y-55199580D01*
X81361404Y-55213231D01*
X81230303Y-55253000D01*
X80969750Y-55253000D01*
X80793000Y-55429750D01*
X80789579Y-55540000D01*
X80803230Y-55678596D01*
X80817307Y-55725002D01*
X80803231Y-55771404D01*
X80789580Y-55910000D01*
X80789580Y-56810000D01*
X80803231Y-56948596D01*
X80817307Y-56995000D01*
X80803231Y-57041404D01*
X80789580Y-57180000D01*
X80789580Y-58080000D01*
X80803231Y-58218596D01*
X80817307Y-58265000D01*
X80803231Y-58311404D01*
X80789580Y-58450000D01*
X80789580Y-59350000D01*
X80803231Y-59488596D01*
X80817307Y-59535000D01*
X80803231Y-59581404D01*
X80789580Y-59720000D01*
X80789580Y-60620000D01*
X80803231Y-60758596D01*
X80817307Y-60805000D01*
X80803231Y-60851404D01*
X80789580Y-60990000D01*
X80789580Y-61890000D01*
X80803231Y-62028596D01*
X80817307Y-62075000D01*
X80803231Y-62121404D01*
X80789580Y-62260000D01*
X80789580Y-63160000D01*
X80803231Y-63298596D01*
X80817307Y-63345000D01*
X80803231Y-63391404D01*
X80789580Y-63530000D01*
X80789580Y-64430000D01*
X80803231Y-64568596D01*
X80817307Y-64615000D01*
X80803231Y-64661404D01*
X80789580Y-64800000D01*
X80789580Y-65700000D01*
X80803231Y-65838596D01*
X80817307Y-65885000D01*
X80803231Y-65931404D01*
X80789580Y-66070000D01*
X80789580Y-66970000D01*
X80803231Y-67108596D01*
X80817307Y-67155000D01*
X80803231Y-67201404D01*
X80789580Y-67340000D01*
X80789580Y-68240000D01*
X80803231Y-68378596D01*
X80817307Y-68425000D01*
X80803231Y-68471404D01*
X80789580Y-68610000D01*
X80789580Y-69510000D01*
X80803231Y-69648596D01*
X80817307Y-69695000D01*
X80803231Y-69741404D01*
X80789580Y-69880000D01*
X80789580Y-70780000D01*
X80803231Y-70918596D01*
X80817307Y-70965000D01*
X80803231Y-71011404D01*
X80789580Y-71150000D01*
X80789580Y-71268711D01*
X80755693Y-71205312D01*
X80667343Y-71097657D01*
X80559688Y-71009307D01*
X80436866Y-70943658D01*
X80303596Y-70903231D01*
X80165000Y-70889580D01*
X79265000Y-70889580D01*
X79126404Y-70903231D01*
X79080000Y-70917307D01*
X79033596Y-70903231D01*
X78895000Y-70889580D01*
X77995000Y-70889580D01*
X77856404Y-70903231D01*
X77810000Y-70917307D01*
X77763596Y-70903231D01*
X77625000Y-70889580D01*
X76725000Y-70889580D01*
X76586404Y-70903231D01*
X76540000Y-70917307D01*
X76493596Y-70903231D01*
X76355000Y-70889580D01*
X75455000Y-70889580D01*
X75316404Y-70903231D01*
X75270000Y-70917307D01*
X75223596Y-70903231D01*
X75085000Y-70889580D01*
X74185000Y-70889580D01*
X74046404Y-70903231D01*
X74000000Y-70917307D01*
X73953596Y-70903231D01*
X73815000Y-70889580D01*
X72915000Y-70889580D01*
X72776404Y-70903231D01*
X72730000Y-70917307D01*
X72683596Y-70903231D01*
X72545000Y-70889580D01*
X71645000Y-70889580D01*
X71506404Y-70903231D01*
X71460000Y-70917307D01*
X71413596Y-70903231D01*
X71275000Y-70889580D01*
X70375000Y-70889580D01*
X70236404Y-70903231D01*
X70190000Y-70917307D01*
X70143596Y-70903231D01*
X70005000Y-70889580D01*
X69105000Y-70889580D01*
X68966404Y-70903231D01*
X68920002Y-70917307D01*
X68873596Y-70903230D01*
X68735000Y-70889579D01*
X68624750Y-70893000D01*
X68448000Y-71069750D01*
X68448000Y-71330303D01*
X68408231Y-71461404D01*
X68394580Y-71600000D01*
X68394580Y-73600000D01*
X68408231Y-73738596D01*
X68448000Y-73869697D01*
X68448000Y-74130250D01*
X68624750Y-74307000D01*
X68735000Y-74310421D01*
X68873596Y-74296770D01*
X68920002Y-74282693D01*
X68966404Y-74296769D01*
X69105000Y-74310420D01*
X70005000Y-74310420D01*
X70143596Y-74296769D01*
X70190000Y-74282693D01*
X70236404Y-74296769D01*
X70375000Y-74310420D01*
X71275000Y-74310420D01*
X71413596Y-74296769D01*
X71460000Y-74282693D01*
X71506404Y-74296769D01*
X71645000Y-74310420D01*
X72545000Y-74310420D01*
X72683596Y-74296769D01*
X72730000Y-74282693D01*
X72776404Y-74296769D01*
X72915000Y-74310420D01*
X73815000Y-74310420D01*
X73953596Y-74296769D01*
X74000000Y-74282693D01*
X74046404Y-74296769D01*
X74185000Y-74310420D01*
X75085000Y-74310420D01*
X75223596Y-74296769D01*
X75270000Y-74282693D01*
X75316404Y-74296769D01*
X75455000Y-74310420D01*
X76355000Y-74310420D01*
X76493596Y-74296769D01*
X76540000Y-74282693D01*
X76586404Y-74296769D01*
X76725000Y-74310420D01*
X77625000Y-74310420D01*
X77763596Y-74296769D01*
X77810000Y-74282693D01*
X77856404Y-74296769D01*
X77995000Y-74310420D01*
X78895000Y-74310420D01*
X79033596Y-74296769D01*
X79080000Y-74282693D01*
X79126404Y-74296769D01*
X79265000Y-74310420D01*
X80165000Y-74310420D01*
X80303596Y-74296769D01*
X80436866Y-74256342D01*
X80559688Y-74190693D01*
X80667343Y-74102343D01*
X80755693Y-73994688D01*
X80821342Y-73871866D01*
X80861769Y-73738596D01*
X80875420Y-73600000D01*
X80875420Y-72381289D01*
X80909307Y-72444688D01*
X80997657Y-72552343D01*
X81105312Y-72640693D01*
X81228134Y-72706342D01*
X81343000Y-72741186D01*
X81343001Y-75419411D01*
X81247657Y-75497657D01*
X81159307Y-75605312D01*
X81093658Y-75728134D01*
X81053231Y-75861404D01*
X81039580Y-76000000D01*
X81039580Y-77500000D01*
X81053231Y-77638596D01*
X81093658Y-77771866D01*
X81159307Y-77894688D01*
X81247657Y-78002343D01*
X81355312Y-78090693D01*
X81478134Y-78156342D01*
X81611404Y-78196769D01*
X81750000Y-78210420D01*
X83250000Y-78210420D01*
X83388596Y-78196769D01*
X83521866Y-78156342D01*
X83644688Y-78090693D01*
X83752343Y-78002343D01*
X83840693Y-77894688D01*
X83906342Y-77771866D01*
X83946769Y-77638596D01*
X83960420Y-77500000D01*
X83960420Y-76000000D01*
X83946769Y-75861404D01*
X83906342Y-75728134D01*
X83840693Y-75605312D01*
X83752343Y-75497657D01*
X83657000Y-75419411D01*
X83657000Y-72741186D01*
X83771866Y-72706342D01*
X83894688Y-72640693D01*
X84002343Y-72552343D01*
X84090693Y-72444688D01*
X84156342Y-72321866D01*
X84196769Y-72188596D01*
X84210420Y-72050000D01*
X84210420Y-71150000D01*
X84196769Y-71011404D01*
X84182693Y-70965000D01*
X84196769Y-70918596D01*
X84210420Y-70780000D01*
X84210420Y-69880000D01*
X84196769Y-69741404D01*
X84182693Y-69695000D01*
X84196769Y-69648596D01*
X84210420Y-69510000D01*
X84210420Y-68610000D01*
X84196769Y-68471404D01*
X84182693Y-68425000D01*
X84196769Y-68378596D01*
X84210420Y-68240000D01*
X84210420Y-68225954D01*
X85228786Y-69244321D01*
X85263446Y-69286554D01*
X85305679Y-69321214D01*
X85305684Y-69321219D01*
X85378496Y-69380974D01*
X85432008Y-69424890D01*
X85514584Y-69469028D01*
X85619026Y-69573470D01*
X85845377Y-69724713D01*
X86096885Y-69828891D01*
X86363885Y-69882000D01*
X86636115Y-69882000D01*
X86903115Y-69828891D01*
X87154623Y-69724713D01*
X87268001Y-69648956D01*
X87268001Y-75719676D01*
X87253588Y-75698105D01*
X87001895Y-75446412D01*
X86705935Y-75248658D01*
X86377082Y-75112442D01*
X86027974Y-75043000D01*
X85672026Y-75043000D01*
X85322918Y-75112442D01*
X84994065Y-75248658D01*
X84698105Y-75446412D01*
X84446412Y-75698105D01*
X84248658Y-75994065D01*
X84112442Y-76322918D01*
X84043000Y-76672026D01*
X84043000Y-77027974D01*
X84112442Y-77377082D01*
X84248658Y-77705935D01*
X84446412Y-78001895D01*
X84698105Y-78253588D01*
X84719674Y-78268000D01*
X63280326Y-78268000D01*
X63301895Y-78253588D01*
X63553588Y-78001895D01*
X63751342Y-77705935D01*
X63836643Y-77500000D01*
X73239579Y-77500000D01*
X73253230Y-77638596D01*
X73293657Y-77771866D01*
X73359307Y-77894689D01*
X73447656Y-78002344D01*
X73555311Y-78090693D01*
X73678134Y-78156343D01*
X73811404Y-78196770D01*
X73950000Y-78210421D01*
X74360250Y-78207000D01*
X74537000Y-78030250D01*
X74537000Y-76913000D01*
X74863000Y-76913000D01*
X74863000Y-78030250D01*
X75039750Y-78207000D01*
X75450000Y-78210421D01*
X75588596Y-78196770D01*
X75721866Y-78156343D01*
X75844689Y-78090693D01*
X75952344Y-78002344D01*
X76040693Y-77894689D01*
X76106343Y-77771866D01*
X76146770Y-77638596D01*
X76160421Y-77500000D01*
X76157000Y-77089750D01*
X75980250Y-76913000D01*
X74863000Y-76913000D01*
X74537000Y-76913000D01*
X73419750Y-76913000D01*
X73243000Y-77089750D01*
X73239579Y-77500000D01*
X63836643Y-77500000D01*
X63887558Y-77377082D01*
X63957000Y-77027974D01*
X63957000Y-76672026D01*
X63887558Y-76322918D01*
X63753801Y-76000000D01*
X73239579Y-76000000D01*
X73243000Y-76410250D01*
X73419750Y-76587000D01*
X74537000Y-76587000D01*
X74537000Y-75469750D01*
X74863000Y-75469750D01*
X74863000Y-76587000D01*
X75980250Y-76587000D01*
X76157000Y-76410250D01*
X76160421Y-76000000D01*
X76146770Y-75861404D01*
X76106343Y-75728134D01*
X76040693Y-75605311D01*
X75952344Y-75497656D01*
X75844689Y-75409307D01*
X75721866Y-75343657D01*
X75588596Y-75303230D01*
X75450000Y-75289579D01*
X75039750Y-75293000D01*
X74863000Y-75469750D01*
X74537000Y-75469750D01*
X74360250Y-75293000D01*
X73950000Y-75289579D01*
X73811404Y-75303230D01*
X73678134Y-75343657D01*
X73555311Y-75409307D01*
X73447656Y-75497656D01*
X73359307Y-75605311D01*
X73293657Y-75728134D01*
X73253230Y-75861404D01*
X73239579Y-76000000D01*
X63753801Y-76000000D01*
X63751342Y-75994065D01*
X63553588Y-75698105D01*
X63301895Y-75446412D01*
X63005935Y-75248658D01*
X62677082Y-75112442D01*
X62327974Y-75043000D01*
X61972026Y-75043000D01*
X61622918Y-75112442D01*
X61294065Y-75248658D01*
X60998105Y-75446412D01*
X60746412Y-75698105D01*
X60732000Y-75719674D01*
X60732000Y-73600000D01*
X67124579Y-73600000D01*
X67138230Y-73738596D01*
X67178657Y-73871866D01*
X67244307Y-73994689D01*
X67332656Y-74102344D01*
X67440311Y-74190693D01*
X67563134Y-74256343D01*
X67696404Y-74296770D01*
X67835000Y-74310421D01*
X67945250Y-74307000D01*
X68122000Y-74130250D01*
X68122000Y-72763000D01*
X67304750Y-72763000D01*
X67128000Y-72939750D01*
X67124579Y-73600000D01*
X60732000Y-73600000D01*
X60732000Y-69648957D01*
X60845377Y-69724713D01*
X61096885Y-69828891D01*
X61363885Y-69882000D01*
X61636115Y-69882000D01*
X61903115Y-69828891D01*
X62154623Y-69724713D01*
X62330793Y-69607000D01*
X63145628Y-69607000D01*
X63200000Y-69612355D01*
X63254372Y-69607000D01*
X63254379Y-69607000D01*
X63417010Y-69590982D01*
X63625680Y-69527683D01*
X63789580Y-69440077D01*
X63789580Y-69510000D01*
X63803231Y-69648596D01*
X63817307Y-69695000D01*
X63803231Y-69741404D01*
X63789580Y-69880000D01*
X63789580Y-70780000D01*
X63803231Y-70918596D01*
X63817307Y-70965000D01*
X63803231Y-71011404D01*
X63789580Y-71150000D01*
X63789580Y-72050000D01*
X63803231Y-72188596D01*
X63843658Y-72321866D01*
X63909307Y-72444688D01*
X63997657Y-72552343D01*
X64105312Y-72640693D01*
X64228134Y-72706342D01*
X64361404Y-72746769D01*
X64500000Y-72760420D01*
X66500000Y-72760420D01*
X66638596Y-72746769D01*
X66771866Y-72706342D01*
X66894688Y-72640693D01*
X67002343Y-72552343D01*
X67090693Y-72444688D01*
X67156342Y-72321866D01*
X67164086Y-72296336D01*
X67304750Y-72437000D01*
X68122000Y-72437000D01*
X68122000Y-71069750D01*
X67945250Y-70893000D01*
X67835000Y-70889579D01*
X67696404Y-70903230D01*
X67563134Y-70943657D01*
X67440311Y-71009307D01*
X67332656Y-71097656D01*
X67244307Y-71205311D01*
X67210420Y-71268709D01*
X67210420Y-71150000D01*
X67196769Y-71011404D01*
X67182693Y-70965000D01*
X67196769Y-70918596D01*
X67210420Y-70780000D01*
X67210420Y-69880000D01*
X67196769Y-69741404D01*
X67182693Y-69695000D01*
X67196769Y-69648596D01*
X67210420Y-69510000D01*
X67210420Y-68610000D01*
X67196769Y-68471404D01*
X67182693Y-68425000D01*
X67196769Y-68378596D01*
X67210420Y-68240000D01*
X67210420Y-67340000D01*
X67196769Y-67201404D01*
X67182693Y-67155000D01*
X67196769Y-67108596D01*
X67210420Y-66970000D01*
X67210420Y-66070000D01*
X67196769Y-65931404D01*
X67182693Y-65885000D01*
X67196769Y-65838596D01*
X67210420Y-65700000D01*
X67210420Y-65090000D01*
X69789579Y-65090000D01*
X69803230Y-65228596D01*
X69843657Y-65361866D01*
X69909307Y-65484689D01*
X69997656Y-65592344D01*
X70105311Y-65680693D01*
X70228134Y-65746343D01*
X70361404Y-65786770D01*
X70500000Y-65800421D01*
X70825250Y-65797000D01*
X71002000Y-65620250D01*
X71002000Y-64588000D01*
X69969750Y-64588000D01*
X69793000Y-64764750D01*
X69789579Y-65090000D01*
X67210420Y-65090000D01*
X67210420Y-64800000D01*
X67196769Y-64661404D01*
X67182693Y-64615000D01*
X67196769Y-64568596D01*
X67210420Y-64430000D01*
X67210420Y-63530000D01*
X67196769Y-63391404D01*
X67182693Y-63345000D01*
X67196769Y-63298596D01*
X67210420Y-63160000D01*
X67210420Y-62260000D01*
X67196769Y-62121404D01*
X67182693Y-62075000D01*
X67196769Y-62028596D01*
X67210420Y-61890000D01*
X67210420Y-61420000D01*
X69789579Y-61420000D01*
X69803230Y-61558596D01*
X69837782Y-61672500D01*
X69803230Y-61786404D01*
X69789579Y-61925000D01*
X69793000Y-62250250D01*
X69969750Y-62427000D01*
X70642648Y-62427000D01*
X70656842Y-62590000D01*
X70642648Y-62753000D01*
X69969750Y-62753000D01*
X69793000Y-62929750D01*
X69789579Y-63255000D01*
X69803230Y-63393596D01*
X69837782Y-63507500D01*
X69803230Y-63621404D01*
X69789579Y-63760000D01*
X69793000Y-64085250D01*
X69969750Y-64262000D01*
X70642648Y-64262000D01*
X70661448Y-64477892D01*
X70860438Y-64557484D01*
X71004103Y-64584242D01*
X71040264Y-64755106D01*
X71112108Y-64928552D01*
X71328000Y-64947352D01*
X71328000Y-65620250D01*
X71504750Y-65797000D01*
X71830000Y-65800421D01*
X71968596Y-65786770D01*
X72082500Y-65752218D01*
X72196404Y-65786770D01*
X72335000Y-65800421D01*
X72660250Y-65797000D01*
X72837000Y-65620250D01*
X72837000Y-64947352D01*
X73000000Y-64933158D01*
X73163000Y-64947352D01*
X73163000Y-65620250D01*
X73339750Y-65797000D01*
X73665000Y-65800421D01*
X73803596Y-65786770D01*
X73917500Y-65752218D01*
X74031404Y-65786770D01*
X74170000Y-65800421D01*
X74495250Y-65797000D01*
X74672000Y-65620250D01*
X74672000Y-64947352D01*
X74887892Y-64928552D01*
X74967484Y-64729562D01*
X74993850Y-64588000D01*
X74998000Y-64588000D01*
X74998000Y-65620250D01*
X75174750Y-65797000D01*
X75500000Y-65800421D01*
X75638596Y-65786770D01*
X75771866Y-65746343D01*
X75894689Y-65680693D01*
X76002344Y-65592344D01*
X76090693Y-65484689D01*
X76156343Y-65361866D01*
X76196770Y-65228596D01*
X76210421Y-65090000D01*
X76207000Y-64764750D01*
X76030250Y-64588000D01*
X74998000Y-64588000D01*
X74993850Y-64588000D01*
X74994242Y-64585897D01*
X75165106Y-64549736D01*
X75338552Y-64477892D01*
X75357352Y-64262000D01*
X76030250Y-64262000D01*
X76207000Y-64085250D01*
X76210421Y-63760000D01*
X76196770Y-63621404D01*
X76162218Y-63507500D01*
X76196770Y-63393596D01*
X76210421Y-63255000D01*
X76207000Y-62929750D01*
X76030250Y-62753000D01*
X75357352Y-62753000D01*
X75343158Y-62590000D01*
X75357352Y-62427000D01*
X76030250Y-62427000D01*
X76207000Y-62250250D01*
X76210421Y-61925000D01*
X76196770Y-61786404D01*
X76162218Y-61672500D01*
X76196770Y-61558596D01*
X76210421Y-61420000D01*
X76207000Y-61094750D01*
X76030250Y-60918000D01*
X75357352Y-60918000D01*
X75338552Y-60702108D01*
X75139562Y-60622516D01*
X74995897Y-60595758D01*
X74959736Y-60424894D01*
X74887892Y-60251448D01*
X74672000Y-60232648D01*
X74672000Y-59559750D01*
X74998000Y-59559750D01*
X74998000Y-60592000D01*
X76030250Y-60592000D01*
X76207000Y-60415250D01*
X76210421Y-60090000D01*
X76196770Y-59951404D01*
X76156343Y-59818134D01*
X76090693Y-59695311D01*
X76002344Y-59587656D01*
X75894689Y-59499307D01*
X75771866Y-59433657D01*
X75638596Y-59393230D01*
X75500000Y-59379579D01*
X75174750Y-59383000D01*
X74998000Y-59559750D01*
X74672000Y-59559750D01*
X74495250Y-59383000D01*
X74170000Y-59379579D01*
X74031404Y-59393230D01*
X73917500Y-59427782D01*
X73803596Y-59393230D01*
X73665000Y-59379579D01*
X73339750Y-59383000D01*
X73163000Y-59559750D01*
X73163000Y-60232648D01*
X73000000Y-60246842D01*
X72837000Y-60232648D01*
X72837000Y-59559750D01*
X72660250Y-59383000D01*
X72335000Y-59379579D01*
X72196404Y-59393230D01*
X72082500Y-59427782D01*
X71968596Y-59393230D01*
X71830000Y-59379579D01*
X71504750Y-59383000D01*
X71328000Y-59559750D01*
X71328000Y-60232648D01*
X71112108Y-60251448D01*
X71032516Y-60450438D01*
X71005758Y-60594103D01*
X70834894Y-60630264D01*
X70661448Y-60702108D01*
X70642648Y-60918000D01*
X69969750Y-60918000D01*
X69793000Y-61094750D01*
X69789579Y-61420000D01*
X67210420Y-61420000D01*
X67210420Y-60990000D01*
X67196769Y-60851404D01*
X67182693Y-60805000D01*
X67196769Y-60758596D01*
X67210420Y-60620000D01*
X67210420Y-60090000D01*
X69789579Y-60090000D01*
X69793000Y-60415250D01*
X69969750Y-60592000D01*
X71002000Y-60592000D01*
X71002000Y-59559750D01*
X70825250Y-59383000D01*
X70500000Y-59379579D01*
X70361404Y-59393230D01*
X70228134Y-59433657D01*
X70105311Y-59499307D01*
X69997656Y-59587656D01*
X69909307Y-59695311D01*
X69843657Y-59818134D01*
X69803230Y-59951404D01*
X69789579Y-60090000D01*
X67210420Y-60090000D01*
X67210420Y-59720000D01*
X67196769Y-59581404D01*
X67182693Y-59535000D01*
X67196769Y-59488596D01*
X67210420Y-59350000D01*
X67210420Y-58737000D01*
X68265628Y-58737000D01*
X68320000Y-58742355D01*
X68374372Y-58737000D01*
X68374379Y-58737000D01*
X68537010Y-58720982D01*
X68745680Y-58657683D01*
X68937992Y-58554890D01*
X69106554Y-58416554D01*
X69141223Y-58374310D01*
X71944316Y-55571218D01*
X71986554Y-55536554D01*
X72124890Y-55367992D01*
X72227683Y-55175680D01*
X72290982Y-54967010D01*
X72307000Y-54804379D01*
X72307000Y-54804373D01*
X72312355Y-54750001D01*
X72307000Y-54695629D01*
X72307000Y-54640000D01*
X80789579Y-54640000D01*
X80793000Y-54750250D01*
X80969750Y-54927000D01*
X82337000Y-54927000D01*
X82337000Y-54109750D01*
X82160250Y-53933000D01*
X81500000Y-53929579D01*
X81361404Y-53943230D01*
X81228134Y-53983657D01*
X81105311Y-54049307D01*
X80997656Y-54137656D01*
X80909307Y-54245311D01*
X80843657Y-54368134D01*
X80803230Y-54501404D01*
X80789579Y-54640000D01*
X72307000Y-54640000D01*
X72307000Y-53457000D01*
X72780888Y-53457000D01*
X72850000Y-53463807D01*
X72919112Y-53457000D01*
X73125820Y-53436641D01*
X73391041Y-53356187D01*
X73635469Y-53225538D01*
X73849713Y-53049713D01*
X73893780Y-52996017D01*
X75179378Y-51710420D01*
X75400000Y-51710420D01*
X75538596Y-51696769D01*
X75671866Y-51656342D01*
X75794688Y-51590693D01*
X75902343Y-51502343D01*
X75990693Y-51394688D01*
X76056342Y-51271866D01*
X76096769Y-51138596D01*
X76110420Y-51000000D01*
X80989579Y-51000000D01*
X81003230Y-51138596D01*
X81043657Y-51271866D01*
X81109307Y-51394689D01*
X81197656Y-51502344D01*
X81305311Y-51590693D01*
X81428134Y-51656343D01*
X81561404Y-51696770D01*
X81700000Y-51710421D01*
X82110250Y-51707000D01*
X82287000Y-51530250D01*
X82287000Y-50413000D01*
X82613000Y-50413000D01*
X82613000Y-51530250D01*
X82789750Y-51707000D01*
X83200000Y-51710421D01*
X83338596Y-51696770D01*
X83471866Y-51656343D01*
X83594689Y-51590693D01*
X83702344Y-51502344D01*
X83790693Y-51394689D01*
X83856343Y-51271866D01*
X83896770Y-51138596D01*
X83910421Y-51000000D01*
X83909385Y-50875677D01*
X85170041Y-50875677D01*
X85185459Y-50926524D01*
X85293928Y-51174783D01*
X85448746Y-51397110D01*
X85555670Y-51500000D01*
X85448746Y-51602890D01*
X85293928Y-51825217D01*
X85185459Y-52073476D01*
X85170041Y-52124323D01*
X85305823Y-52337000D01*
X86337000Y-52337000D01*
X86337000Y-50663000D01*
X85305823Y-50663000D01*
X85170041Y-50875677D01*
X83909385Y-50875677D01*
X83907000Y-50589750D01*
X83730250Y-50413000D01*
X82613000Y-50413000D01*
X82287000Y-50413000D01*
X81169750Y-50413000D01*
X80993000Y-50589750D01*
X80989579Y-51000000D01*
X76110420Y-51000000D01*
X76110420Y-49500000D01*
X80989579Y-49500000D01*
X80993000Y-49910250D01*
X81169750Y-50087000D01*
X82287000Y-50087000D01*
X82287000Y-48969750D01*
X82613000Y-48969750D01*
X82613000Y-50087000D01*
X83730250Y-50087000D01*
X83907000Y-49910250D01*
X83910421Y-49500000D01*
X83896770Y-49361404D01*
X83856343Y-49228134D01*
X83790693Y-49105311D01*
X83702344Y-48997656D01*
X83594689Y-48909307D01*
X83471866Y-48843657D01*
X83338596Y-48803230D01*
X83200000Y-48789579D01*
X82789750Y-48793000D01*
X82613000Y-48969750D01*
X82287000Y-48969750D01*
X82110250Y-48793000D01*
X81700000Y-48789579D01*
X81561404Y-48803230D01*
X81428134Y-48843657D01*
X81305311Y-48909307D01*
X81197656Y-48997656D01*
X81109307Y-49105311D01*
X81043657Y-49228134D01*
X81003230Y-49361404D01*
X80989579Y-49500000D01*
X76110420Y-49500000D01*
X76096769Y-49361404D01*
X76056342Y-49228134D01*
X75990693Y-49105312D01*
X75902343Y-48997657D01*
X75794688Y-48909307D01*
X75671866Y-48843658D01*
X75538596Y-48803231D01*
X75400000Y-48789580D01*
X73900000Y-48789580D01*
X73761404Y-48803231D01*
X73628134Y-48843658D01*
X73505312Y-48909307D01*
X73397657Y-48997657D01*
X73309307Y-49105312D01*
X73243658Y-49228134D01*
X73203231Y-49361404D01*
X73189580Y-49500000D01*
X73189580Y-49720622D01*
X72267203Y-50643000D01*
X71130888Y-50643000D01*
X70924180Y-50663359D01*
X70837741Y-50689580D01*
X70574999Y-50689580D01*
X70387631Y-50708034D01*
X70357000Y-50717326D01*
X70357000Y-50508534D01*
X70556897Y-50308637D01*
X70574999Y-50310420D01*
X70837741Y-50310420D01*
X70924179Y-50336641D01*
X71199999Y-50363807D01*
X71200000Y-50363807D01*
X71337909Y-50350224D01*
X71475820Y-50336641D01*
X71562258Y-50310420D01*
X71825001Y-50310420D01*
X72012369Y-50291966D01*
X72192537Y-50237312D01*
X72358581Y-50148560D01*
X72504120Y-50029120D01*
X72623560Y-49883581D01*
X72712312Y-49717537D01*
X72766966Y-49537369D01*
X72785420Y-49350001D01*
X72785420Y-48549999D01*
X72766966Y-48362631D01*
X72712312Y-48182463D01*
X72623560Y-48016419D01*
X72607000Y-47996240D01*
X72607000Y-46810420D01*
X73150000Y-46810420D01*
X73288596Y-46796769D01*
X73421866Y-46756342D01*
X73544688Y-46690693D01*
X73652343Y-46602343D01*
X73740693Y-46494688D01*
X73806342Y-46371866D01*
X73846769Y-46238596D01*
X73860420Y-46100000D01*
X73860420Y-45607000D01*
X77519112Y-45607000D01*
X77725820Y-45586641D01*
X77729845Y-45585420D01*
X78750001Y-45585420D01*
X78937369Y-45566966D01*
X79117537Y-45512312D01*
X79283581Y-45423560D01*
X79429120Y-45304120D01*
X79548560Y-45158581D01*
X79611494Y-45040839D01*
X79643657Y-45146866D01*
X79709307Y-45269689D01*
X79797656Y-45377344D01*
X79905311Y-45465693D01*
X80028134Y-45531343D01*
X80161404Y-45571770D01*
X80300000Y-45585421D01*
X80747750Y-45582000D01*
X80924500Y-45405250D01*
X80924500Y-44363000D01*
X81250500Y-44363000D01*
X81250500Y-45405250D01*
X81427250Y-45582000D01*
X81875000Y-45585421D01*
X82013596Y-45571770D01*
X82146866Y-45531343D01*
X82269689Y-45465693D01*
X82377344Y-45377344D01*
X82465693Y-45269689D01*
X82531343Y-45146866D01*
X82571770Y-45013596D01*
X82585421Y-44875000D01*
X82582000Y-44539750D01*
X82405250Y-44363000D01*
X81250500Y-44363000D01*
X80924500Y-44363000D01*
X80904500Y-44363000D01*
X80904500Y-44037000D01*
X80924500Y-44037000D01*
X80924500Y-42994750D01*
X81250500Y-42994750D01*
X81250500Y-44037000D01*
X82405250Y-44037000D01*
X82582000Y-43860250D01*
X82585421Y-43525000D01*
X82571770Y-43386404D01*
X82531343Y-43253134D01*
X82465693Y-43130311D01*
X82377344Y-43022656D01*
X82269689Y-42934307D01*
X82146866Y-42868657D01*
X82013596Y-42828230D01*
X81875000Y-42814579D01*
X81427250Y-42818000D01*
X81250500Y-42994750D01*
X80924500Y-42994750D01*
X80747750Y-42818000D01*
X80300000Y-42814579D01*
X80161404Y-42828230D01*
X80028134Y-42868657D01*
X79905311Y-42934307D01*
X79797656Y-43022656D01*
X79709307Y-43130311D01*
X79643657Y-43253134D01*
X79611494Y-43359161D01*
X79548560Y-43241419D01*
X79429120Y-43095880D01*
X79283581Y-42976440D01*
X79117537Y-42887688D01*
X78937369Y-42833034D01*
X78750001Y-42814580D01*
X77729845Y-42814580D01*
X77725820Y-42813359D01*
X77519112Y-42793000D01*
X73860420Y-42793000D01*
X73860420Y-42300000D01*
X73846769Y-42161404D01*
X73806342Y-42028134D01*
X73740693Y-41905312D01*
X73652343Y-41797657D01*
X73544688Y-41709307D01*
X73421866Y-41643658D01*
X73288596Y-41603231D01*
X73150000Y-41589580D01*
X71150000Y-41589580D01*
X71011404Y-41603231D01*
X70878134Y-41643658D01*
X70755312Y-41709307D01*
X70647657Y-41797657D01*
X70559307Y-41905312D01*
X70493658Y-42028134D01*
X70453231Y-42161404D01*
X70439580Y-42300000D01*
X70439580Y-43143000D01*
X67487563Y-43143000D01*
X67440693Y-43055312D01*
X67436334Y-43050001D01*
X67440693Y-43044689D01*
X67506343Y-42921866D01*
X67546770Y-42788596D01*
X67560421Y-42650000D01*
X67557000Y-42239750D01*
X67380250Y-42063000D01*
X66013000Y-42063000D01*
X66013000Y-42083000D01*
X65687000Y-42083000D01*
X65687000Y-42063000D01*
X64319750Y-42063000D01*
X64143000Y-42239750D01*
X64139579Y-42650000D01*
X64153230Y-42788596D01*
X64193657Y-42921866D01*
X64259307Y-43044689D01*
X64263666Y-43050001D01*
X64259307Y-43055312D01*
X64193658Y-43178134D01*
X64153231Y-43311404D01*
X64139580Y-43450000D01*
X64139580Y-44950000D01*
X64153231Y-45088596D01*
X64154567Y-45093000D01*
X61430888Y-45093000D01*
X61224180Y-45113359D01*
X61220155Y-45114580D01*
X60825000Y-45114580D01*
X60732000Y-45123740D01*
X60732000Y-43280326D01*
X60746412Y-43301895D01*
X60998105Y-43553588D01*
X61294065Y-43751342D01*
X61622918Y-43887558D01*
X61972026Y-43957000D01*
X62327974Y-43957000D01*
X62677082Y-43887558D01*
X63005935Y-43751342D01*
X63301895Y-43553588D01*
X63553588Y-43301895D01*
X63751342Y-43005935D01*
X63887558Y-42677082D01*
X63957000Y-42327974D01*
X63957000Y-41972026D01*
X63887558Y-41622918D01*
X63751342Y-41294065D01*
X63553588Y-40998105D01*
X63301895Y-40746412D01*
X63280326Y-40732000D01*
X64278438Y-40732000D01*
X64259307Y-40755311D01*
%TA.AperFunction,Conductor*%
D27*
G36*
X64259307Y-40755311D02*
G01*
X64193657Y-40878134D01*
X64153230Y-41011404D01*
X64139579Y-41150000D01*
X64143000Y-41560250D01*
X64319750Y-41737000D01*
X65687000Y-41737000D01*
X65687000Y-41717000D01*
X66013000Y-41717000D01*
X66013000Y-41737000D01*
X67380250Y-41737000D01*
X67557000Y-41560250D01*
X67560421Y-41150000D01*
X67546770Y-41011404D01*
X67506343Y-40878134D01*
X67440693Y-40755311D01*
X67421562Y-40732000D01*
X84719674Y-40732000D01*
X84698105Y-40746412D01*
X84446412Y-40998105D01*
X84248658Y-41294065D01*
X84112442Y-41622918D01*
X84043000Y-41972026D01*
X84043000Y-42327974D01*
X84112442Y-42677082D01*
X84248658Y-43005935D01*
X84446412Y-43301895D01*
X84698105Y-43553588D01*
X84994065Y-43751342D01*
X85322918Y-43887558D01*
X85672026Y-43957000D01*
X86027974Y-43957000D01*
X86377082Y-43887558D01*
X86705935Y-43751342D01*
X87001895Y-43553588D01*
X87253588Y-43301895D01*
X87268000Y-43280326D01*
X87268000Y-45123740D01*
X87175000Y-45114580D01*
X85825000Y-45114580D01*
X85686404Y-45128231D01*
X85553134Y-45168658D01*
X85430312Y-45234307D01*
X85322657Y-45322657D01*
X85234307Y-45430312D01*
X85168658Y-45553134D01*
X85128231Y-45686404D01*
X85114580Y-45825000D01*
X85114580Y-47175000D01*
X85128231Y-47313596D01*
X85168658Y-47446866D01*
X85234307Y-47569688D01*
X85322657Y-47677343D01*
X85364577Y-47711746D01*
X85275287Y-47845377D01*
X85171109Y-48096885D01*
X85118000Y-48363885D01*
X85118000Y-48636115D01*
X85171109Y-48903115D01*
X85275287Y-49154623D01*
X85426530Y-49380974D01*
X85550516Y-49504960D01*
X85448746Y-49602890D01*
X85293928Y-49825217D01*
X85185459Y-50073476D01*
X85170041Y-50124323D01*
X85305823Y-50337000D01*
X86337000Y-50337000D01*
X86337000Y-50317000D01*
X86663000Y-50317000D01*
X86663000Y-50337000D01*
X86683000Y-50337000D01*
X86683000Y-50663000D01*
X86663000Y-50663000D01*
X86663000Y-52337000D01*
X86683000Y-52337000D01*
X86683000Y-52663000D01*
X86663000Y-52663000D01*
X86663000Y-52683000D01*
X86337000Y-52683000D01*
X86337000Y-52663000D01*
X85305823Y-52663000D01*
X85170041Y-52875677D01*
X85185459Y-52926524D01*
X85293928Y-53174783D01*
X85448746Y-53397110D01*
X85455724Y-53403824D01*
X85402992Y-53409018D01*
X85194322Y-53472317D01*
X85002010Y-53575110D01*
X84833448Y-53713446D01*
X84798784Y-53755684D01*
X84163323Y-54391145D01*
X84156343Y-54368134D01*
X84090693Y-54245311D01*
X84002344Y-54137656D01*
X83894689Y-54049307D01*
X83771866Y-53983657D01*
X83638596Y-53943230D01*
X83500000Y-53929579D01*
X82839750Y-53933000D01*
X82663000Y-54109750D01*
X82663000Y-54927000D01*
X82683000Y-54927000D01*
X82683000Y-55199580D01*
X81500000Y-55199580D01*
X81361404Y-55213231D01*
X81230303Y-55253000D01*
X80969750Y-55253000D01*
X80793000Y-55429750D01*
X80789579Y-55540000D01*
X80803230Y-55678596D01*
X80817307Y-55725002D01*
X80803231Y-55771404D01*
X80789580Y-55910000D01*
X80789580Y-56810000D01*
X80803231Y-56948596D01*
X80817307Y-56995000D01*
X80803231Y-57041404D01*
X80789580Y-57180000D01*
X80789580Y-58080000D01*
X80803231Y-58218596D01*
X80817307Y-58265000D01*
X80803231Y-58311404D01*
X80789580Y-58450000D01*
X80789580Y-59350000D01*
X80803231Y-59488596D01*
X80817307Y-59535000D01*
X80803231Y-59581404D01*
X80789580Y-59720000D01*
X80789580Y-60620000D01*
X80803231Y-60758596D01*
X80817307Y-60805000D01*
X80803231Y-60851404D01*
X80789580Y-60990000D01*
X80789580Y-61890000D01*
X80803231Y-62028596D01*
X80817307Y-62075000D01*
X80803231Y-62121404D01*
X80789580Y-62260000D01*
X80789580Y-63160000D01*
X80803231Y-63298596D01*
X80817307Y-63345000D01*
X80803231Y-63391404D01*
X80789580Y-63530000D01*
X80789580Y-64430000D01*
X80803231Y-64568596D01*
X80817307Y-64615000D01*
X80803231Y-64661404D01*
X80789580Y-64800000D01*
X80789580Y-65700000D01*
X80803231Y-65838596D01*
X80817307Y-65885000D01*
X80803231Y-65931404D01*
X80789580Y-66070000D01*
X80789580Y-66970000D01*
X80803231Y-67108596D01*
X80817307Y-67155000D01*
X80803231Y-67201404D01*
X80789580Y-67340000D01*
X80789580Y-68240000D01*
X80803231Y-68378596D01*
X80817307Y-68425000D01*
X80803231Y-68471404D01*
X80789580Y-68610000D01*
X80789580Y-69510000D01*
X80803231Y-69648596D01*
X80817307Y-69695000D01*
X80803231Y-69741404D01*
X80789580Y-69880000D01*
X80789580Y-70780000D01*
X80803231Y-70918596D01*
X80817307Y-70965000D01*
X80803231Y-71011404D01*
X80789580Y-71150000D01*
X80789580Y-71268711D01*
X80755693Y-71205312D01*
X80667343Y-71097657D01*
X80559688Y-71009307D01*
X80436866Y-70943658D01*
X80303596Y-70903231D01*
X80165000Y-70889580D01*
X79265000Y-70889580D01*
X79126404Y-70903231D01*
X79080000Y-70917307D01*
X79033596Y-70903231D01*
X78895000Y-70889580D01*
X77995000Y-70889580D01*
X77856404Y-70903231D01*
X77810000Y-70917307D01*
X77763596Y-70903231D01*
X77625000Y-70889580D01*
X76725000Y-70889580D01*
X76586404Y-70903231D01*
X76540000Y-70917307D01*
X76493596Y-70903231D01*
X76355000Y-70889580D01*
X75455000Y-70889580D01*
X75316404Y-70903231D01*
X75270000Y-70917307D01*
X75223596Y-70903231D01*
X75085000Y-70889580D01*
X74185000Y-70889580D01*
X74046404Y-70903231D01*
X74000000Y-70917307D01*
X73953596Y-70903231D01*
X73815000Y-70889580D01*
X72915000Y-70889580D01*
X72776404Y-70903231D01*
X72730000Y-70917307D01*
X72683596Y-70903231D01*
X72545000Y-70889580D01*
X71645000Y-70889580D01*
X71506404Y-70903231D01*
X71460000Y-70917307D01*
X71413596Y-70903231D01*
X71275000Y-70889580D01*
X70375000Y-70889580D01*
X70236404Y-70903231D01*
X70190000Y-70917307D01*
X70143596Y-70903231D01*
X70005000Y-70889580D01*
X69105000Y-70889580D01*
X68966404Y-70903231D01*
X68920002Y-70917307D01*
X68873596Y-70903230D01*
X68735000Y-70889579D01*
X68624750Y-70893000D01*
X68448000Y-71069750D01*
X68448000Y-71330303D01*
X68408231Y-71461404D01*
X68394580Y-71600000D01*
X68394580Y-73600000D01*
X68408231Y-73738596D01*
X68448000Y-73869697D01*
X68448000Y-74130250D01*
X68624750Y-74307000D01*
X68735000Y-74310421D01*
X68873596Y-74296770D01*
X68920002Y-74282693D01*
X68966404Y-74296769D01*
X69105000Y-74310420D01*
X70005000Y-74310420D01*
X70143596Y-74296769D01*
X70190000Y-74282693D01*
X70236404Y-74296769D01*
X70375000Y-74310420D01*
X71275000Y-74310420D01*
X71413596Y-74296769D01*
X71460000Y-74282693D01*
X71506404Y-74296769D01*
X71645000Y-74310420D01*
X72545000Y-74310420D01*
X72683596Y-74296769D01*
X72730000Y-74282693D01*
X72776404Y-74296769D01*
X72915000Y-74310420D01*
X73815000Y-74310420D01*
X73953596Y-74296769D01*
X74000000Y-74282693D01*
X74046404Y-74296769D01*
X74185000Y-74310420D01*
X75085000Y-74310420D01*
X75223596Y-74296769D01*
X75270000Y-74282693D01*
X75316404Y-74296769D01*
X75455000Y-74310420D01*
X76355000Y-74310420D01*
X76493596Y-74296769D01*
X76540000Y-74282693D01*
X76586404Y-74296769D01*
X76725000Y-74310420D01*
X77625000Y-74310420D01*
X77763596Y-74296769D01*
X77810000Y-74282693D01*
X77856404Y-74296769D01*
X77995000Y-74310420D01*
X78895000Y-74310420D01*
X79033596Y-74296769D01*
X79080000Y-74282693D01*
X79126404Y-74296769D01*
X79265000Y-74310420D01*
X80165000Y-74310420D01*
X80303596Y-74296769D01*
X80436866Y-74256342D01*
X80559688Y-74190693D01*
X80667343Y-74102343D01*
X80755693Y-73994688D01*
X80821342Y-73871866D01*
X80861769Y-73738596D01*
X80875420Y-73600000D01*
X80875420Y-72381289D01*
X80909307Y-72444688D01*
X80997657Y-72552343D01*
X81105312Y-72640693D01*
X81228134Y-72706342D01*
X81343000Y-72741186D01*
X81343001Y-75419411D01*
X81247657Y-75497657D01*
X81159307Y-75605312D01*
X81093658Y-75728134D01*
X81053231Y-75861404D01*
X81039580Y-76000000D01*
X81039580Y-77500000D01*
X81053231Y-77638596D01*
X81093658Y-77771866D01*
X81159307Y-77894688D01*
X81247657Y-78002343D01*
X81355312Y-78090693D01*
X81478134Y-78156342D01*
X81611404Y-78196769D01*
X81750000Y-78210420D01*
X83250000Y-78210420D01*
X83388596Y-78196769D01*
X83521866Y-78156342D01*
X83644688Y-78090693D01*
X83752343Y-78002343D01*
X83840693Y-77894688D01*
X83906342Y-77771866D01*
X83946769Y-77638596D01*
X83960420Y-77500000D01*
X83960420Y-76000000D01*
X83946769Y-75861404D01*
X83906342Y-75728134D01*
X83840693Y-75605312D01*
X83752343Y-75497657D01*
X83657000Y-75419411D01*
X83657000Y-72741186D01*
X83771866Y-72706342D01*
X83894688Y-72640693D01*
X84002343Y-72552343D01*
X84090693Y-72444688D01*
X84156342Y-72321866D01*
X84196769Y-72188596D01*
X84210420Y-72050000D01*
X84210420Y-71150000D01*
X84196769Y-71011404D01*
X84182693Y-70965000D01*
X84196769Y-70918596D01*
X84210420Y-70780000D01*
X84210420Y-69880000D01*
X84196769Y-69741404D01*
X84182693Y-69695000D01*
X84196769Y-69648596D01*
X84210420Y-69510000D01*
X84210420Y-68610000D01*
X84196769Y-68471404D01*
X84182693Y-68425000D01*
X84196769Y-68378596D01*
X84210420Y-68240000D01*
X84210420Y-68225954D01*
X85228786Y-69244321D01*
X85263446Y-69286554D01*
X85305679Y-69321214D01*
X85305684Y-69321219D01*
X85378496Y-69380974D01*
X85432008Y-69424890D01*
X85514584Y-69469028D01*
X85619026Y-69573470D01*
X85845377Y-69724713D01*
X86096885Y-69828891D01*
X86363885Y-69882000D01*
X86636115Y-69882000D01*
X86903115Y-69828891D01*
X87154623Y-69724713D01*
X87268001Y-69648956D01*
X87268001Y-75719676D01*
X87253588Y-75698105D01*
X87001895Y-75446412D01*
X86705935Y-75248658D01*
X86377082Y-75112442D01*
X86027974Y-75043000D01*
X85672026Y-75043000D01*
X85322918Y-75112442D01*
X84994065Y-75248658D01*
X84698105Y-75446412D01*
X84446412Y-75698105D01*
X84248658Y-75994065D01*
X84112442Y-76322918D01*
X84043000Y-76672026D01*
X84043000Y-77027974D01*
X84112442Y-77377082D01*
X84248658Y-77705935D01*
X84446412Y-78001895D01*
X84698105Y-78253588D01*
X84719674Y-78268000D01*
X63280326Y-78268000D01*
X63301895Y-78253588D01*
X63553588Y-78001895D01*
X63751342Y-77705935D01*
X63836643Y-77500000D01*
X73239579Y-77500000D01*
X73253230Y-77638596D01*
X73293657Y-77771866D01*
X73359307Y-77894689D01*
X73447656Y-78002344D01*
X73555311Y-78090693D01*
X73678134Y-78156343D01*
X73811404Y-78196770D01*
X73950000Y-78210421D01*
X74360250Y-78207000D01*
X74537000Y-78030250D01*
X74537000Y-76913000D01*
X74863000Y-76913000D01*
X74863000Y-78030250D01*
X75039750Y-78207000D01*
X75450000Y-78210421D01*
X75588596Y-78196770D01*
X75721866Y-78156343D01*
X75844689Y-78090693D01*
X75952344Y-78002344D01*
X76040693Y-77894689D01*
X76106343Y-77771866D01*
X76146770Y-77638596D01*
X76160421Y-77500000D01*
X76157000Y-77089750D01*
X75980250Y-76913000D01*
X74863000Y-76913000D01*
X74537000Y-76913000D01*
X73419750Y-76913000D01*
X73243000Y-77089750D01*
X73239579Y-77500000D01*
X63836643Y-77500000D01*
X63887558Y-77377082D01*
X63957000Y-77027974D01*
X63957000Y-76672026D01*
X63887558Y-76322918D01*
X63753801Y-76000000D01*
X73239579Y-76000000D01*
X73243000Y-76410250D01*
X73419750Y-76587000D01*
X74537000Y-76587000D01*
X74537000Y-75469750D01*
X74863000Y-75469750D01*
X74863000Y-76587000D01*
X75980250Y-76587000D01*
X76157000Y-76410250D01*
X76160421Y-76000000D01*
X76146770Y-75861404D01*
X76106343Y-75728134D01*
X76040693Y-75605311D01*
X75952344Y-75497656D01*
X75844689Y-75409307D01*
X75721866Y-75343657D01*
X75588596Y-75303230D01*
X75450000Y-75289579D01*
X75039750Y-75293000D01*
X74863000Y-75469750D01*
X74537000Y-75469750D01*
X74360250Y-75293000D01*
X73950000Y-75289579D01*
X73811404Y-75303230D01*
X73678134Y-75343657D01*
X73555311Y-75409307D01*
X73447656Y-75497656D01*
X73359307Y-75605311D01*
X73293657Y-75728134D01*
X73253230Y-75861404D01*
X73239579Y-76000000D01*
X63753801Y-76000000D01*
X63751342Y-75994065D01*
X63553588Y-75698105D01*
X63301895Y-75446412D01*
X63005935Y-75248658D01*
X62677082Y-75112442D01*
X62327974Y-75043000D01*
X61972026Y-75043000D01*
X61622918Y-75112442D01*
X61294065Y-75248658D01*
X60998105Y-75446412D01*
X60746412Y-75698105D01*
X60732000Y-75719674D01*
X60732000Y-73600000D01*
X67124579Y-73600000D01*
X67138230Y-73738596D01*
X67178657Y-73871866D01*
X67244307Y-73994689D01*
X67332656Y-74102344D01*
X67440311Y-74190693D01*
X67563134Y-74256343D01*
X67696404Y-74296770D01*
X67835000Y-74310421D01*
X67945250Y-74307000D01*
X68122000Y-74130250D01*
X68122000Y-72763000D01*
X67304750Y-72763000D01*
X67128000Y-72939750D01*
X67124579Y-73600000D01*
X60732000Y-73600000D01*
X60732000Y-69648957D01*
X60845377Y-69724713D01*
X61096885Y-69828891D01*
X61363885Y-69882000D01*
X61636115Y-69882000D01*
X61903115Y-69828891D01*
X62154623Y-69724713D01*
X62330793Y-69607000D01*
X63145628Y-69607000D01*
X63200000Y-69612355D01*
X63254372Y-69607000D01*
X63254379Y-69607000D01*
X63417010Y-69590982D01*
X63625680Y-69527683D01*
X63789580Y-69440077D01*
X63789580Y-69510000D01*
X63803231Y-69648596D01*
X63817307Y-69695000D01*
X63803231Y-69741404D01*
X63789580Y-69880000D01*
X63789580Y-70780000D01*
X63803231Y-70918596D01*
X63817307Y-70965000D01*
X63803231Y-71011404D01*
X63789580Y-71150000D01*
X63789580Y-72050000D01*
X63803231Y-72188596D01*
X63843658Y-72321866D01*
X63909307Y-72444688D01*
X63997657Y-72552343D01*
X64105312Y-72640693D01*
X64228134Y-72706342D01*
X64361404Y-72746769D01*
X64500000Y-72760420D01*
X66500000Y-72760420D01*
X66638596Y-72746769D01*
X66771866Y-72706342D01*
X66894688Y-72640693D01*
X67002343Y-72552343D01*
X67090693Y-72444688D01*
X67156342Y-72321866D01*
X67164086Y-72296336D01*
X67304750Y-72437000D01*
X68122000Y-72437000D01*
X68122000Y-71069750D01*
X67945250Y-70893000D01*
X67835000Y-70889579D01*
X67696404Y-70903230D01*
X67563134Y-70943657D01*
X67440311Y-71009307D01*
X67332656Y-71097656D01*
X67244307Y-71205311D01*
X67210420Y-71268709D01*
X67210420Y-71150000D01*
X67196769Y-71011404D01*
X67182693Y-70965000D01*
X67196769Y-70918596D01*
X67210420Y-70780000D01*
X67210420Y-69880000D01*
X67196769Y-69741404D01*
X67182693Y-69695000D01*
X67196769Y-69648596D01*
X67210420Y-69510000D01*
X67210420Y-68610000D01*
X67196769Y-68471404D01*
X67182693Y-68425000D01*
X67196769Y-68378596D01*
X67210420Y-68240000D01*
X67210420Y-67340000D01*
X67196769Y-67201404D01*
X67182693Y-67155000D01*
X67196769Y-67108596D01*
X67210420Y-66970000D01*
X67210420Y-66070000D01*
X67196769Y-65931404D01*
X67182693Y-65885000D01*
X67196769Y-65838596D01*
X67210420Y-65700000D01*
X67210420Y-65090000D01*
X69789579Y-65090000D01*
X69803230Y-65228596D01*
X69843657Y-65361866D01*
X69909307Y-65484689D01*
X69997656Y-65592344D01*
X70105311Y-65680693D01*
X70228134Y-65746343D01*
X70361404Y-65786770D01*
X70500000Y-65800421D01*
X70825250Y-65797000D01*
X71002000Y-65620250D01*
X71002000Y-64588000D01*
X69969750Y-64588000D01*
X69793000Y-64764750D01*
X69789579Y-65090000D01*
X67210420Y-65090000D01*
X67210420Y-64800000D01*
X67196769Y-64661404D01*
X67182693Y-64615000D01*
X67196769Y-64568596D01*
X67210420Y-64430000D01*
X67210420Y-63530000D01*
X67196769Y-63391404D01*
X67182693Y-63345000D01*
X67196769Y-63298596D01*
X67210420Y-63160000D01*
X67210420Y-62260000D01*
X67196769Y-62121404D01*
X67182693Y-62075000D01*
X67196769Y-62028596D01*
X67210420Y-61890000D01*
X67210420Y-61420000D01*
X69789579Y-61420000D01*
X69803230Y-61558596D01*
X69837782Y-61672500D01*
X69803230Y-61786404D01*
X69789579Y-61925000D01*
X69793000Y-62250250D01*
X69969750Y-62427000D01*
X70642648Y-62427000D01*
X70656842Y-62590000D01*
X70642648Y-62753000D01*
X69969750Y-62753000D01*
X69793000Y-62929750D01*
X69789579Y-63255000D01*
X69803230Y-63393596D01*
X69837782Y-63507500D01*
X69803230Y-63621404D01*
X69789579Y-63760000D01*
X69793000Y-64085250D01*
X69969750Y-64262000D01*
X70642648Y-64262000D01*
X70661448Y-64477892D01*
X70860438Y-64557484D01*
X71004103Y-64584242D01*
X71040264Y-64755106D01*
X71112108Y-64928552D01*
X71328000Y-64947352D01*
X71328000Y-65620250D01*
X71504750Y-65797000D01*
X71830000Y-65800421D01*
X71968596Y-65786770D01*
X72082500Y-65752218D01*
X72196404Y-65786770D01*
X72335000Y-65800421D01*
X72660250Y-65797000D01*
X72837000Y-65620250D01*
X72837000Y-64947352D01*
X73000000Y-64933158D01*
X73163000Y-64947352D01*
X73163000Y-65620250D01*
X73339750Y-65797000D01*
X73665000Y-65800421D01*
X73803596Y-65786770D01*
X73917500Y-65752218D01*
X74031404Y-65786770D01*
X74170000Y-65800421D01*
X74495250Y-65797000D01*
X74672000Y-65620250D01*
X74672000Y-64947352D01*
X74887892Y-64928552D01*
X74967484Y-64729562D01*
X74993850Y-64588000D01*
X74998000Y-64588000D01*
X74998000Y-65620250D01*
X75174750Y-65797000D01*
X75500000Y-65800421D01*
X75638596Y-65786770D01*
X75771866Y-65746343D01*
X75894689Y-65680693D01*
X76002344Y-65592344D01*
X76090693Y-65484689D01*
X76156343Y-65361866D01*
X76196770Y-65228596D01*
X76210421Y-65090000D01*
X76207000Y-64764750D01*
X76030250Y-64588000D01*
X74998000Y-64588000D01*
X74993850Y-64588000D01*
X74994242Y-64585897D01*
X75165106Y-64549736D01*
X75338552Y-64477892D01*
X75357352Y-64262000D01*
X76030250Y-64262000D01*
X76207000Y-64085250D01*
X76210421Y-63760000D01*
X76196770Y-63621404D01*
X76162218Y-63507500D01*
X76196770Y-63393596D01*
X76210421Y-63255000D01*
X76207000Y-62929750D01*
X76030250Y-62753000D01*
X75357352Y-62753000D01*
X75343158Y-62590000D01*
X75357352Y-62427000D01*
X76030250Y-62427000D01*
X76207000Y-62250250D01*
X76210421Y-61925000D01*
X76196770Y-61786404D01*
X76162218Y-61672500D01*
X76196770Y-61558596D01*
X76210421Y-61420000D01*
X76207000Y-61094750D01*
X76030250Y-60918000D01*
X75357352Y-60918000D01*
X75338552Y-60702108D01*
X75139562Y-60622516D01*
X74995897Y-60595758D01*
X74959736Y-60424894D01*
X74887892Y-60251448D01*
X74672000Y-60232648D01*
X74672000Y-59559750D01*
X74998000Y-59559750D01*
X74998000Y-60592000D01*
X76030250Y-60592000D01*
X76207000Y-60415250D01*
X76210421Y-60090000D01*
X76196770Y-59951404D01*
X76156343Y-59818134D01*
X76090693Y-59695311D01*
X76002344Y-59587656D01*
X75894689Y-59499307D01*
X75771866Y-59433657D01*
X75638596Y-59393230D01*
X75500000Y-59379579D01*
X75174750Y-59383000D01*
X74998000Y-59559750D01*
X74672000Y-59559750D01*
X74495250Y-59383000D01*
X74170000Y-59379579D01*
X74031404Y-59393230D01*
X73917500Y-59427782D01*
X73803596Y-59393230D01*
X73665000Y-59379579D01*
X73339750Y-59383000D01*
X73163000Y-59559750D01*
X73163000Y-60232648D01*
X73000000Y-60246842D01*
X72837000Y-60232648D01*
X72837000Y-59559750D01*
X72660250Y-59383000D01*
X72335000Y-59379579D01*
X72196404Y-59393230D01*
X72082500Y-59427782D01*
X71968596Y-59393230D01*
X71830000Y-59379579D01*
X71504750Y-59383000D01*
X71328000Y-59559750D01*
X71328000Y-60232648D01*
X71112108Y-60251448D01*
X71032516Y-60450438D01*
X71005758Y-60594103D01*
X70834894Y-60630264D01*
X70661448Y-60702108D01*
X70642648Y-60918000D01*
X69969750Y-60918000D01*
X69793000Y-61094750D01*
X69789579Y-61420000D01*
X67210420Y-61420000D01*
X67210420Y-60990000D01*
X67196769Y-60851404D01*
X67182693Y-60805000D01*
X67196769Y-60758596D01*
X67210420Y-60620000D01*
X67210420Y-60090000D01*
X69789579Y-60090000D01*
X69793000Y-60415250D01*
X69969750Y-60592000D01*
X71002000Y-60592000D01*
X71002000Y-59559750D01*
X70825250Y-59383000D01*
X70500000Y-59379579D01*
X70361404Y-59393230D01*
X70228134Y-59433657D01*
X70105311Y-59499307D01*
X69997656Y-59587656D01*
X69909307Y-59695311D01*
X69843657Y-59818134D01*
X69803230Y-59951404D01*
X69789579Y-60090000D01*
X67210420Y-60090000D01*
X67210420Y-59720000D01*
X67196769Y-59581404D01*
X67182693Y-59535000D01*
X67196769Y-59488596D01*
X67210420Y-59350000D01*
X67210420Y-58737000D01*
X68265628Y-58737000D01*
X68320000Y-58742355D01*
X68374372Y-58737000D01*
X68374379Y-58737000D01*
X68537010Y-58720982D01*
X68745680Y-58657683D01*
X68937992Y-58554890D01*
X69106554Y-58416554D01*
X69141223Y-58374310D01*
X71944316Y-55571218D01*
X71986554Y-55536554D01*
X72124890Y-55367992D01*
X72227683Y-55175680D01*
X72290982Y-54967010D01*
X72307000Y-54804379D01*
X72307000Y-54804373D01*
X72312355Y-54750001D01*
X72307000Y-54695629D01*
X72307000Y-54640000D01*
X80789579Y-54640000D01*
X80793000Y-54750250D01*
X80969750Y-54927000D01*
X82337000Y-54927000D01*
X82337000Y-54109750D01*
X82160250Y-53933000D01*
X81500000Y-53929579D01*
X81361404Y-53943230D01*
X81228134Y-53983657D01*
X81105311Y-54049307D01*
X80997656Y-54137656D01*
X80909307Y-54245311D01*
X80843657Y-54368134D01*
X80803230Y-54501404D01*
X80789579Y-54640000D01*
X72307000Y-54640000D01*
X72307000Y-53457000D01*
X72780888Y-53457000D01*
X72850000Y-53463807D01*
X72919112Y-53457000D01*
X73125820Y-53436641D01*
X73391041Y-53356187D01*
X73635469Y-53225538D01*
X73849713Y-53049713D01*
X73893780Y-52996017D01*
X75179378Y-51710420D01*
X75400000Y-51710420D01*
X75538596Y-51696769D01*
X75671866Y-51656342D01*
X75794688Y-51590693D01*
X75902343Y-51502343D01*
X75990693Y-51394688D01*
X76056342Y-51271866D01*
X76096769Y-51138596D01*
X76110420Y-51000000D01*
X80989579Y-51000000D01*
X81003230Y-51138596D01*
X81043657Y-51271866D01*
X81109307Y-51394689D01*
X81197656Y-51502344D01*
X81305311Y-51590693D01*
X81428134Y-51656343D01*
X81561404Y-51696770D01*
X81700000Y-51710421D01*
X82110250Y-51707000D01*
X82287000Y-51530250D01*
X82287000Y-50413000D01*
X82613000Y-50413000D01*
X82613000Y-51530250D01*
X82789750Y-51707000D01*
X83200000Y-51710421D01*
X83338596Y-51696770D01*
X83471866Y-51656343D01*
X83594689Y-51590693D01*
X83702344Y-51502344D01*
X83790693Y-51394689D01*
X83856343Y-51271866D01*
X83896770Y-51138596D01*
X83910421Y-51000000D01*
X83909385Y-50875677D01*
X85170041Y-50875677D01*
X85185459Y-50926524D01*
X85293928Y-51174783D01*
X85448746Y-51397110D01*
X85555670Y-51500000D01*
X85448746Y-51602890D01*
X85293928Y-51825217D01*
X85185459Y-52073476D01*
X85170041Y-52124323D01*
X85305823Y-52337000D01*
X86337000Y-52337000D01*
X86337000Y-50663000D01*
X85305823Y-50663000D01*
X85170041Y-50875677D01*
X83909385Y-50875677D01*
X83907000Y-50589750D01*
X83730250Y-50413000D01*
X82613000Y-50413000D01*
X82287000Y-50413000D01*
X81169750Y-50413000D01*
X80993000Y-50589750D01*
X80989579Y-51000000D01*
X76110420Y-51000000D01*
X76110420Y-49500000D01*
X80989579Y-49500000D01*
X80993000Y-49910250D01*
X81169750Y-50087000D01*
X82287000Y-50087000D01*
X82287000Y-48969750D01*
X82613000Y-48969750D01*
X82613000Y-50087000D01*
X83730250Y-50087000D01*
X83907000Y-49910250D01*
X83910421Y-49500000D01*
X83896770Y-49361404D01*
X83856343Y-49228134D01*
X83790693Y-49105311D01*
X83702344Y-48997656D01*
X83594689Y-48909307D01*
X83471866Y-48843657D01*
X83338596Y-48803230D01*
X83200000Y-48789579D01*
X82789750Y-48793000D01*
X82613000Y-48969750D01*
X82287000Y-48969750D01*
X82110250Y-48793000D01*
X81700000Y-48789579D01*
X81561404Y-48803230D01*
X81428134Y-48843657D01*
X81305311Y-48909307D01*
X81197656Y-48997656D01*
X81109307Y-49105311D01*
X81043657Y-49228134D01*
X81003230Y-49361404D01*
X80989579Y-49500000D01*
X76110420Y-49500000D01*
X76096769Y-49361404D01*
X76056342Y-49228134D01*
X75990693Y-49105312D01*
X75902343Y-48997657D01*
X75794688Y-48909307D01*
X75671866Y-48843658D01*
X75538596Y-48803231D01*
X75400000Y-48789580D01*
X73900000Y-48789580D01*
X73761404Y-48803231D01*
X73628134Y-48843658D01*
X73505312Y-48909307D01*
X73397657Y-48997657D01*
X73309307Y-49105312D01*
X73243658Y-49228134D01*
X73203231Y-49361404D01*
X73189580Y-49500000D01*
X73189580Y-49720622D01*
X72267203Y-50643000D01*
X71130888Y-50643000D01*
X70924180Y-50663359D01*
X70837741Y-50689580D01*
X70574999Y-50689580D01*
X70387631Y-50708034D01*
X70357000Y-50717326D01*
X70357000Y-50508534D01*
X70556897Y-50308637D01*
X70574999Y-50310420D01*
X70837741Y-50310420D01*
X70924179Y-50336641D01*
X71199999Y-50363807D01*
X71200000Y-50363807D01*
X71337909Y-50350224D01*
X71475820Y-50336641D01*
X71562258Y-50310420D01*
X71825001Y-50310420D01*
X72012369Y-50291966D01*
X72192537Y-50237312D01*
X72358581Y-50148560D01*
X72504120Y-50029120D01*
X72623560Y-49883581D01*
X72712312Y-49717537D01*
X72766966Y-49537369D01*
X72785420Y-49350001D01*
X72785420Y-48549999D01*
X72766966Y-48362631D01*
X72712312Y-48182463D01*
X72623560Y-48016419D01*
X72607000Y-47996240D01*
X72607000Y-46810420D01*
X73150000Y-46810420D01*
X73288596Y-46796769D01*
X73421866Y-46756342D01*
X73544688Y-46690693D01*
X73652343Y-46602343D01*
X73740693Y-46494688D01*
X73806342Y-46371866D01*
X73846769Y-46238596D01*
X73860420Y-46100000D01*
X73860420Y-45607000D01*
X77519112Y-45607000D01*
X77725820Y-45586641D01*
X77729845Y-45585420D01*
X78750001Y-45585420D01*
X78937369Y-45566966D01*
X79117537Y-45512312D01*
X79283581Y-45423560D01*
X79429120Y-45304120D01*
X79548560Y-45158581D01*
X79611494Y-45040839D01*
X79643657Y-45146866D01*
X79709307Y-45269689D01*
X79797656Y-45377344D01*
X79905311Y-45465693D01*
X80028134Y-45531343D01*
X80161404Y-45571770D01*
X80300000Y-45585421D01*
X80747750Y-45582000D01*
X80924500Y-45405250D01*
X80924500Y-44363000D01*
X81250500Y-44363000D01*
X81250500Y-45405250D01*
X81427250Y-45582000D01*
X81875000Y-45585421D01*
X82013596Y-45571770D01*
X82146866Y-45531343D01*
X82269689Y-45465693D01*
X82377344Y-45377344D01*
X82465693Y-45269689D01*
X82531343Y-45146866D01*
X82571770Y-45013596D01*
X82585421Y-44875000D01*
X82582000Y-44539750D01*
X82405250Y-44363000D01*
X81250500Y-44363000D01*
X80924500Y-44363000D01*
X80904500Y-44363000D01*
X80904500Y-44037000D01*
X80924500Y-44037000D01*
X80924500Y-42994750D01*
X81250500Y-42994750D01*
X81250500Y-44037000D01*
X82405250Y-44037000D01*
X82582000Y-43860250D01*
X82585421Y-43525000D01*
X82571770Y-43386404D01*
X82531343Y-43253134D01*
X82465693Y-43130311D01*
X82377344Y-43022656D01*
X82269689Y-42934307D01*
X82146866Y-42868657D01*
X82013596Y-42828230D01*
X81875000Y-42814579D01*
X81427250Y-42818000D01*
X81250500Y-42994750D01*
X80924500Y-42994750D01*
X80747750Y-42818000D01*
X80300000Y-42814579D01*
X80161404Y-42828230D01*
X80028134Y-42868657D01*
X79905311Y-42934307D01*
X79797656Y-43022656D01*
X79709307Y-43130311D01*
X79643657Y-43253134D01*
X79611494Y-43359161D01*
X79548560Y-43241419D01*
X79429120Y-43095880D01*
X79283581Y-42976440D01*
X79117537Y-42887688D01*
X78937369Y-42833034D01*
X78750001Y-42814580D01*
X77729845Y-42814580D01*
X77725820Y-42813359D01*
X77519112Y-42793000D01*
X73860420Y-42793000D01*
X73860420Y-42300000D01*
X73846769Y-42161404D01*
X73806342Y-42028134D01*
X73740693Y-41905312D01*
X73652343Y-41797657D01*
X73544688Y-41709307D01*
X73421866Y-41643658D01*
X73288596Y-41603231D01*
X73150000Y-41589580D01*
X71150000Y-41589580D01*
X71011404Y-41603231D01*
X70878134Y-41643658D01*
X70755312Y-41709307D01*
X70647657Y-41797657D01*
X70559307Y-41905312D01*
X70493658Y-42028134D01*
X70453231Y-42161404D01*
X70439580Y-42300000D01*
X70439580Y-43143000D01*
X67487563Y-43143000D01*
X67440693Y-43055312D01*
X67436334Y-43050001D01*
X67440693Y-43044689D01*
X67506343Y-42921866D01*
X67546770Y-42788596D01*
X67560421Y-42650000D01*
X67557000Y-42239750D01*
X67380250Y-42063000D01*
X66013000Y-42063000D01*
X66013000Y-42083000D01*
X65687000Y-42083000D01*
X65687000Y-42063000D01*
X64319750Y-42063000D01*
X64143000Y-42239750D01*
X64139579Y-42650000D01*
X64153230Y-42788596D01*
X64193657Y-42921866D01*
X64259307Y-43044689D01*
X64263666Y-43050001D01*
X64259307Y-43055312D01*
X64193658Y-43178134D01*
X64153231Y-43311404D01*
X64139580Y-43450000D01*
X64139580Y-44950000D01*
X64153231Y-45088596D01*
X64154567Y-45093000D01*
X61430888Y-45093000D01*
X61224180Y-45113359D01*
X61220155Y-45114580D01*
X60825000Y-45114580D01*
X60732000Y-45123740D01*
X60732000Y-43280326D01*
X60746412Y-43301895D01*
X60998105Y-43553588D01*
X61294065Y-43751342D01*
X61622918Y-43887558D01*
X61972026Y-43957000D01*
X62327974Y-43957000D01*
X62677082Y-43887558D01*
X63005935Y-43751342D01*
X63301895Y-43553588D01*
X63553588Y-43301895D01*
X63751342Y-43005935D01*
X63887558Y-42677082D01*
X63957000Y-42327974D01*
X63957000Y-41972026D01*
X63887558Y-41622918D01*
X63751342Y-41294065D01*
X63553588Y-40998105D01*
X63301895Y-40746412D01*
X63280326Y-40732000D01*
X64278438Y-40732000D01*
X64259307Y-40755311D01*
G37*
%TD.AperFunction*%
D26*
X68137645Y-50050000D02*
X68143001Y-50104381D01*
X68143000Y-54141465D01*
X67207000Y-55077467D01*
X67207000Y-54926998D01*
X67030252Y-54926998D01*
X67207000Y-54750250D01*
X67210421Y-54640000D01*
X67196770Y-54501404D01*
X67156343Y-54368134D01*
X67090693Y-54245311D01*
X67002344Y-54137656D01*
X66894689Y-54049307D01*
X66771866Y-53983657D01*
X66638596Y-53943230D01*
X66500000Y-53929579D01*
X65839750Y-53933000D01*
X65663000Y-54109750D01*
X65663000Y-54927000D01*
X65683000Y-54927000D01*
X65683000Y-55199580D01*
X65317000Y-55199580D01*
X65317000Y-54927000D01*
X65337000Y-54927000D01*
X65337000Y-54109750D01*
X65160250Y-53933000D01*
X64500000Y-53929579D01*
X64361404Y-53943230D01*
X64228134Y-53983657D01*
X64105311Y-54049307D01*
X63997656Y-54137656D01*
X63990815Y-54145992D01*
X63634131Y-53789308D01*
X63601028Y-53748972D01*
X63440079Y-53616884D01*
X63256453Y-53518735D01*
X63057208Y-53458294D01*
X62901924Y-53443000D01*
X62901916Y-53443000D01*
X62850000Y-53437887D01*
X62798084Y-53443000D01*
X62503565Y-53443000D01*
X62551254Y-53397110D01*
X62706072Y-53174783D01*
X62814541Y-52926524D01*
X62829959Y-52875677D01*
X62694177Y-52663000D01*
X61663000Y-52663000D01*
X61663000Y-52683000D01*
X61337000Y-52683000D01*
X61337000Y-52663000D01*
X61317000Y-52663000D01*
X61317000Y-52337000D01*
X61337000Y-52337000D01*
X61337000Y-50663000D01*
X61663000Y-50663000D01*
X61663000Y-52337000D01*
X62694177Y-52337000D01*
X62829959Y-52124323D01*
X62814541Y-52073476D01*
X62706072Y-51825217D01*
X62551254Y-51602890D01*
X62444330Y-51500000D01*
X62551254Y-51397110D01*
X62706072Y-51174783D01*
X62814541Y-50926524D01*
X62829959Y-50875677D01*
X62694177Y-50663000D01*
X61663000Y-50663000D01*
X61337000Y-50663000D01*
X61317000Y-50663000D01*
X61317000Y-50337000D01*
X61337000Y-50337000D01*
X61337000Y-50317000D01*
X61663000Y-50317000D01*
X61663000Y-50337000D01*
X62694177Y-50337000D01*
X62829959Y-50124323D01*
X62814541Y-50073476D01*
X62741805Y-49907000D01*
X68151729Y-49907000D01*
X68137645Y-50050000D01*
%TA.AperFunction,Conductor*%
D27*
G36*
X68137645Y-50050000D02*
G01*
X68143001Y-50104381D01*
X68143000Y-54141465D01*
X67207000Y-55077467D01*
X67207000Y-54926998D01*
X67030252Y-54926998D01*
X67207000Y-54750250D01*
X67210421Y-54640000D01*
X67196770Y-54501404D01*
X67156343Y-54368134D01*
X67090693Y-54245311D01*
X67002344Y-54137656D01*
X66894689Y-54049307D01*
X66771866Y-53983657D01*
X66638596Y-53943230D01*
X66500000Y-53929579D01*
X65839750Y-53933000D01*
X65663000Y-54109750D01*
X65663000Y-54927000D01*
X65683000Y-54927000D01*
X65683000Y-55199580D01*
X65317000Y-55199580D01*
X65317000Y-54927000D01*
X65337000Y-54927000D01*
X65337000Y-54109750D01*
X65160250Y-53933000D01*
X64500000Y-53929579D01*
X64361404Y-53943230D01*
X64228134Y-53983657D01*
X64105311Y-54049307D01*
X63997656Y-54137656D01*
X63990815Y-54145992D01*
X63634131Y-53789308D01*
X63601028Y-53748972D01*
X63440079Y-53616884D01*
X63256453Y-53518735D01*
X63057208Y-53458294D01*
X62901924Y-53443000D01*
X62901916Y-53443000D01*
X62850000Y-53437887D01*
X62798084Y-53443000D01*
X62503565Y-53443000D01*
X62551254Y-53397110D01*
X62706072Y-53174783D01*
X62814541Y-52926524D01*
X62829959Y-52875677D01*
X62694177Y-52663000D01*
X61663000Y-52663000D01*
X61663000Y-52683000D01*
X61337000Y-52683000D01*
X61337000Y-52663000D01*
X61317000Y-52663000D01*
X61317000Y-52337000D01*
X61337000Y-52337000D01*
X61337000Y-50663000D01*
X61663000Y-50663000D01*
X61663000Y-52337000D01*
X62694177Y-52337000D01*
X62829959Y-52124323D01*
X62814541Y-52073476D01*
X62706072Y-51825217D01*
X62551254Y-51602890D01*
X62444330Y-51500000D01*
X62551254Y-51397110D01*
X62706072Y-51174783D01*
X62814541Y-50926524D01*
X62829959Y-50875677D01*
X62694177Y-50663000D01*
X61663000Y-50663000D01*
X61337000Y-50663000D01*
X61317000Y-50663000D01*
X61317000Y-50337000D01*
X61337000Y-50337000D01*
X61337000Y-50317000D01*
X61663000Y-50317000D01*
X61663000Y-50337000D01*
X62694177Y-50337000D01*
X62829959Y-50124323D01*
X62814541Y-50073476D01*
X62741805Y-49907000D01*
X68151729Y-49907000D01*
X68137645Y-50050000D01*
G37*
%TD.AperFunction*%
%TD*%
M02*
